<svg xmlns="http://www.w3.org/2000/svg" viewBox="0 0 680 800" width="680" height="800">
<title>Summer sag below commercial vehicle height</title>
<desc>Pole compliance training scene. Severity: SERIOUS. Hazard: summer sag below vehicle clearance.</desc>
<rect x="0" y="0" width="680" height="60" fill="#854F0B"/>
<text x="24" y="38" font-family="Helvetica, Arial, sans-serif" font-size="20" font-weight="600" fill="#FFFFFF">SERIOUS</text>
<text x="660" y="22" font-family="Helvetica, Arial, sans-serif" font-size="10" fill="#FAEEDA" text-anchor="end">OSHA 29 CFR 1903.14(b)</text>
<text x="660" y="37" font-family="Helvetica, Arial, sans-serif" font-size="10" fill="#FAEEDA" text-anchor="end">Hazard: summer sag below vehicle clearance</text>
<text x="660" y="52" font-family="Helvetica, Arial, sans-serif" font-size="10" fill="#FAEEDA" text-anchor="end">Scene: de45c3_w_summer_vehicle_clearance</text>
<rect x="0" y="60" width="680" height="550" fill="#EAF1F7"/>
<rect x="0" y="610" width="680" height="50" fill="#D9C8A8"/>
<line x1="0" y1="610" x2="680" y2="610" stroke="#7A5C2A" stroke-width="1"/>
<path d="M 20 612 L 23 606 L 26 612" stroke="#3B6D11" stroke-width="0.7" fill="none"/>
<path d="M 48 612 L 51 606 L 54 612" stroke="#3B6D11" stroke-width="0.7" fill="none"/>
<path d="M 76 612 L 79 606 L 82 612" stroke="#3B6D11" stroke-width="0.7" fill="none"/>
<path d="M 104 612 L 107 606 L 110 612" stroke="#3B6D11" stroke-width="0.7" fill="none"/>
<path d="M 132 612 L 135 606 L 138 612" stroke="#3B6D11" stroke-width="0.7" fill="none"/>
<path d="M 160 612 L 163 606 L 166 612" stroke="#3B6D11" stroke-width="0.7" fill="none"/>
<path d="M 188 612 L 191 606 L 194 612" stroke="#3B6D11" stroke-width="0.7" fill="none"/>
<path d="M 216 612 L 219 606 L 222 612" stroke="#3B6D11" stroke-width="0.7" fill="none"/>
<path d="M 244 612 L 247 606 L 250 612" stroke="#3B6D11" stroke-width="0.7" fill="none"/>
<path d="M 272 612 L 275 606 L 278 612" stroke="#3B6D11" stroke-width="0.7" fill="none"/>
<path d="M 300 612 L 303 606 L 306 612" stroke="#3B6D11" stroke-width="0.7" fill="none"/>
<path d="M 328 612 L 331 606 L 334 612" stroke="#3B6D11" stroke-width="0.7" fill="none"/>
<path d="M 356 612 L 359 606 L 362 612" stroke="#3B6D11" stroke-width="0.7" fill="none"/>
<path d="M 384 612 L 387 606 L 390 612" stroke="#3B6D11" stroke-width="0.7" fill="none"/>
<path d="M 412 612 L 415 606 L 418 612" stroke="#3B6D11" stroke-width="0.7" fill="none"/>
<path d="M 440 612 L 443 606 L 446 612" stroke="#3B6D11" stroke-width="0.7" fill="none"/>
<path d="M 468 612 L 471 606 L 474 612" stroke="#3B6D11" stroke-width="0.7" fill="none"/>
<path d="M 496 612 L 499 606 L 502 612" stroke="#3B6D11" stroke-width="0.7" fill="none"/>
<path d="M 524 612 L 527 606 L 530 612" stroke="#3B6D11" stroke-width="0.7" fill="none"/>
<path d="M 552 612 L 555 606 L 558 612" stroke="#3B6D11" stroke-width="0.7" fill="none"/>
<path d="M 580 612 L 583 606 L 586 612" stroke="#3B6D11" stroke-width="0.7" fill="none"/>
<path d="M 608 612 L 611 606 L 614 612" stroke="#3B6D11" stroke-width="0.7" fill="none"/>
<path d="M 636 612 L 639 606 L 642 612" stroke="#3B6D11" stroke-width="0.7" fill="none"/>
<path d="M 664 612 L 667 606 L 670 612" stroke="#3B6D11" stroke-width="0.7" fill="none"/>
<rect x="0" y="475" width="58" height="55" fill="#C0AC85" stroke="#5C4426" stroke-width="0.6"/>
<polygon points="0,475 29,448 58,475" fill="#7A5C2A" stroke="#5C4426" stroke-width="0.6"/>
<rect x="20" y="495" width="12" height="20" fill="#5C4426"/>
<rect x="40" y="495" width="11" height="11" fill="#A8C8E0"/>
<rect x="0" y="60" width="680" height="550" fill="#FFE8B0" fill-opacity="0.22"/>
<circle cx="600" cy="115" r="36" fill="#FFE585" fill-opacity="0.55"/>
<circle cx="600" cy="115" r="22" fill="#FFF4C0" fill-opacity="0.8"/>
<path d="M 40 600 Q 48 595 56 600" stroke="#E0B870" stroke-width="0.6" fill="none" opacity="0.4"/>
<path d="M 80 600 Q 88 595 96 600" stroke="#E0B870" stroke-width="0.6" fill="none" opacity="0.4"/>
<path d="M 120 600 Q 128 595 136 600" stroke="#E0B870" stroke-width="0.6" fill="none" opacity="0.4"/>
<path d="M 160 600 Q 168 595 176 600" stroke="#E0B870" stroke-width="0.6" fill="none" opacity="0.4"/>
<path d="M 200 600 Q 208 595 216 600" stroke="#E0B870" stroke-width="0.6" fill="none" opacity="0.4"/>
<path d="M 240 600 Q 248 595 256 600" stroke="#E0B870" stroke-width="0.6" fill="none" opacity="0.4"/>
<path d="M 280 600 Q 288 595 296 600" stroke="#E0B870" stroke-width="0.6" fill="none" opacity="0.4"/>
<path d="M 320 600 Q 328 595 336 600" stroke="#E0B870" stroke-width="0.6" fill="none" opacity="0.4"/>
<path d="M 360 600 Q 368 595 376 600" stroke="#E0B870" stroke-width="0.6" fill="none" opacity="0.4"/>
<path d="M 400 600 Q 408 595 416 600" stroke="#E0B870" stroke-width="0.6" fill="none" opacity="0.4"/>
<path d="M 440 600 Q 448 595 456 600" stroke="#E0B870" stroke-width="0.6" fill="none" opacity="0.4"/>
<path d="M 480 600 Q 488 595 496 600" stroke="#E0B870" stroke-width="0.6" fill="none" opacity="0.4"/>
<path d="M 520 600 Q 528 595 536 600" stroke="#E0B870" stroke-width="0.6" fill="none" opacity="0.4"/>
<path d="M 560 600 Q 568 595 576 600" stroke="#E0B870" stroke-width="0.6" fill="none" opacity="0.4"/>
<path d="M 600 600 Q 608 595 616 600" stroke="#E0B870" stroke-width="0.6" fill="none" opacity="0.4"/>
<path d="M 640 600 Q 648 595 656 600" stroke="#E0B870" stroke-width="0.6" fill="none" opacity="0.4"/>
<polygon points="175,75 185,75 190,610 170,610" fill="#A07C50" stroke="#5C4426" stroke-width="1"/>
<polygon points="170,610 190,610 192,710 168,710" fill="#A07C50" fill-opacity="0.45" stroke="#5C4426" stroke-width="0.7" stroke-dasharray="3 2"/>
<rect x="122" y="110" width="116" height="8" fill="#6B4E2A" stroke="#3C2810" stroke-width="0.6"/>
<rect x="122" y="135" width="116" height="8" fill="#6B4E2A" stroke="#3C2810" stroke-width="0.6"/>
<line x1="138" y1="108" x2="138" y2="145" stroke="#3C2810" stroke-width="0.7"/>
<line x1="222" y1="108" x2="222" y2="145" stroke="#3C2810" stroke-width="0.7"/>
<line x1="0" y1="96" x2="135" y2="98" stroke="#A32D2D" stroke-width="0.6"/>
<line x1="0" y1="106" x2="180" y2="108" stroke="#A32D2D" stroke-width="0.6"/>
<line x1="0" y1="116" x2="225" y2="118" stroke="#A32D2D" stroke-width="0.6"/>
<g><ellipse cx="150" cy="99" rx="4" ry="2.5" fill="#D2D2D2" stroke="#3C3C3C" stroke-width="0.4"/><ellipse cx="160" cy="100" rx="4" ry="2.5" fill="#D2D2D2" stroke="#3C3C3C" stroke-width="0.4"/></g>
<g><ellipse cx="168" cy="108" rx="4" ry="2.5" fill="#D2D2D2" stroke="#3C3C3C" stroke-width="0.4"/><ellipse cx="178" cy="109" rx="4" ry="2.5" fill="#D2D2D2" stroke="#3C3C3C" stroke-width="0.4"/></g>
<g><ellipse cx="205" cy="117" rx="4" ry="2.5" fill="#D2D2D2" stroke="#3C3C3C" stroke-width="0.4"/><ellipse cx="215" cy="118" rx="4" ry="2.5" fill="#D2D2D2" stroke="#3C3C3C" stroke-width="0.4"/></g>
<circle cx="130" cy="98" r="2.5" fill="#A32D2D" stroke="#501313" stroke-width="0.3"/>
<circle cx="130" cy="108" r="2.5" fill="#A32D2D" stroke="#501313" stroke-width="0.3"/>
<circle cx="230" cy="118" r="2.5" fill="#A32D2D" stroke="#501313" stroke-width="0.3"/>
<line x1="0" y1="175" x2="680" y2="175" stroke="#5F5E5A" stroke-width="0.9"/>
<circle cx="180" cy="175" r="2" fill="#444441"/>
<line x1="171" y1="145" x2="10" y2="610" stroke="#3D3D3A" stroke-width="1.4"/>
<line x1="189" y1="145" x2="350" y2="610" stroke="#3D3D3A" stroke-width="1.4"/>
<ellipse cx="122" cy="285" rx="6" ry="3.5" fill="#D2D2D2" stroke="#3C3C3C" stroke-width="0.5"/>
<ellipse cx="238" cy="285" rx="6" ry="3.5" fill="#D2D2D2" stroke="#3C3C3C" stroke-width="0.5"/>
<line x1="52" y1="478" x2="10" y2="608" stroke="#EF9F27" stroke-width="5" stroke-linecap="round" opacity="0.85"/>
<line x1="308" y1="478" x2="350" y2="608" stroke="#EF9F27" stroke-width="5" stroke-linecap="round" opacity="0.85"/>
<circle cx="10" cy="610" r="3" fill="#3D3D3A"/>
<circle cx="350" cy="610" r="3" fill="#3D3D3A"/>
<line x1="189" y1="160" x2="189" y2="610" stroke="#1D9E75" stroke-width="0.8"/>
<rect x="186" y="510" width="6" height="100" fill="#5F5E5A" stroke="#2C2C2A" stroke-width="0.3"/>
<path d="M 480 600 Q 472 555 468 510 Q 466 490 472 478" stroke="#5C4426" stroke-width="12" fill="none" stroke-linecap="round"/>
<ellipse cx="480" cy="480" rx="50" ry="35" fill="#639922" fill-opacity="0.92" stroke="#3B6D11" stroke-width="0.4"/>
<ellipse cx="455" cy="510" rx="45" ry="32" fill="#639922" fill-opacity="0.92" stroke="#3B6D11" stroke-width="0.4"/>
<ellipse cx="505" cy="525" rx="42" ry="30" fill="#639922" fill-opacity="0.92" stroke="#3B6D11" stroke-width="0.4"/>
<ellipse cx="440" cy="540" rx="40" ry="28" fill="#639922" fill-opacity="0.92" stroke="#3B6D11" stroke-width="0.4"/>
<ellipse cx="490" cy="555" rx="38" ry="28" fill="#639922" fill-opacity="0.92" stroke="#3B6D11" stroke-width="0.4"/>
<ellipse cx="445" cy="570" rx="36" ry="26" fill="#639922" fill-opacity="0.92" stroke="#3B6D11" stroke-width="0.4"/>
<path d="M 0 98 Q 85.0 168.0 170 98" stroke="#A32D2D" stroke-width="1.2" fill="none"/>
<rect x="200" y="558" width="80" height="52" fill="#8A8680" stroke="#3C3C3C" stroke-width="0.6"/>
<circle cx="216" cy="612" r="6" fill="#1C1C1C"/>
<circle cx="264" cy="612" r="6" fill="#1C1C1C"/>
<line x1="240" y1="175" x2="240" y2="558" stroke="#A32D2D" stroke-width="1" stroke-dasharray="3 2"/>
<rect x="222.0" y="359.5" width="40" height="13" fill="#FFFFFF" fill-opacity="0.9" rx="2"/>
<text x="240.0" y="369.5" font-family="Helvetica, Arial, sans-serif" font-size="9" font-weight="600" fill="#A32D2D" text-anchor="middle">13 ft 2 in</text>
<circle cx="240" cy="175" r="22" fill="#854F0B" fill-opacity="0.15"/>
<circle cx="240" cy="175" r="18" fill="none" stroke="#854F0B" stroke-width="2.2" opacity="0.85"/>
<circle cx="240" cy="175" r="14" fill="none" stroke="#854F0B" stroke-width="1" opacity="0.55"/>
<rect x="420" y="75" width="240" height="82" rx="6" fill="#FAEEDA" stroke="#854F0B" stroke-width="1.4"/>
<text x="430" y="93" font-family="Helvetica, Arial, sans-serif" font-size="13" font-weight="600" fill="#412402">Summer sag below truck height</text>
<text x="430" y="108" font-family="Helvetica, Arial, sans-serif" font-size="11" fill="#412402">Mid-span 13 ft 2 in to top of vehicle</text>
<text x="430" y="123" font-family="Helvetica, Arial, sans-serif" font-size="11" fill="#412402">NESC 232.B min 15 ft 6 in road</text>
<text x="430" y="138" font-family="Helvetica, Arial, sans-serif" font-size="11" fill="#412402">Re-tension immediately</text>
<rect x="242" y="84" width="173.0" height="15" fill="#FFFFFF" fill-opacity="0.78" rx="2"/>
<text x="245" y="95" font-family="Helvetica, Arial, sans-serif" font-size="10" fill="#3D3D3A">dead-end 12.47 kV terminations</text>
<rect x="242" y="161" width="85.0" height="15" fill="#FFFFFF" fill-opacity="0.78" rx="2"/>
<text x="245" y="172" font-family="Helvetica, Arial, sans-serif" font-size="10" fill="#3D3D3A">system neutral</text>
<rect x="282" y="259" width="85.0" height="15" fill="#FFFFFF" fill-opacity="0.78" rx="2"/>
<text x="285" y="270" font-family="Helvetica, Arial, sans-serif" font-size="10" fill="#3D3D3A">twin down guys</text>
<rect x="0" y="660" width="680" height="140" fill="#F1EFE8"/>
<line x1="0" y1="660" x2="680" y2="660" stroke="#73726c" stroke-width="0.6"/>
<text x="24" y="682" font-family="Helvetica, Arial, sans-serif" font-size="13" font-weight="600" fill="#2C2C2A">Regulation citations</text>
<text x="24" y="700" font-family="Helvetica, Arial, sans-serif" font-size="11" fill="#444441">NESC Rule 232.B: road clearance</text>
<text x="24" y="716" font-family="Helvetica, Arial, sans-serif" font-size="11" fill="#444441">MIOSHA Part 86: vehicle clearance</text>
<text x="24" y="732" font-family="Helvetica, Arial, sans-serif" font-size="11" fill="#444441">IEEE Std 738: thermal rating</text>
<text x="24" y="748" font-family="Helvetica, Arial, sans-serif" font-size="11" fill="#444441">MPSC R 460.3504: corrective action</text>
<text x="24" y="764" font-family="Helvetica, Arial, sans-serif" font-size="11" fill="#444441">MDOT vehicle height standards</text>
<rect x="470" y="668" width="200" height="100" rx="4" fill="#FAEEDA" stroke="#854F0B" stroke-width="0.6"/>
<text x="478" y="684" font-family="Helvetica, Arial, sans-serif" font-size="11" font-weight="600" fill="#412402">Annotation metadata</text>
<text x="478" y="700" font-family="Helvetica, Arial, sans-serif" font-size="10" fill="#412402">pole_type: de45c3</text>
<text x="478" y="713" font-family="Helvetica, Arial, sans-serif" font-size="10" fill="#412402">scene_type: weather_violation</text>
<text x="478" y="726" font-family="Helvetica, Arial, sans-serif" font-size="10" fill="#412402">weather_condition: summer_thermal</text>
<text x="478" y="739" font-family="Helvetica, Arial, sans-serif" font-size="10" fill="#412402">framing: weather_induced_violation</text>
<text x="478" y="752" font-family="Helvetica, Arial, sans-serif" font-size="10" fill="#412402">severity: serious</text>
</svg>