<svg xmlns="http://www.w3.org/2000/svg" viewBox="0 0 680 800" width="680" height="800">
<title>138 kV steel H-frame compliant in snow</title>
<desc>Pole compliance training scene. Severity: COMPLIANT BASELINE. Hazard: snow on steel H-frame.</desc>
<rect x="0" y="0" width="680" height="60" fill="#3B6D11"/>
<text x="24" y="38" font-family="Helvetica, Arial, sans-serif" font-size="20" font-weight="600" fill="#FFFFFF">COMPLIANT BASELINE</text>
<text x="660" y="22" font-family="Helvetica, Arial, sans-serif" font-size="10" fill="#EAF3DE" text-anchor="end">Reference scene, no violation</text>
<text x="660" y="37" font-family="Helvetica, Arial, sans-serif" font-size="10" fill="#EAF3DE" text-anchor="end">Hazard: snow on steel H-frame</text>
<text x="660" y="52" font-family="Helvetica, Arial, sans-serif" font-size="10" fill="#EAF3DE" text-anchor="end">Scene: hfs138_w_snow_compliant</text>
<rect x="0" y="60" width="680" height="550" fill="#EAF1F7"/>
<rect x="0" y="610" width="680" height="50" fill="#D9C8A8"/>
<line x1="0" y1="610" x2="680" y2="610" stroke="#7A5C2A" stroke-width="1"/>
<path d="M 20 612 L 23 606 L 26 612" stroke="#3B6D11" stroke-width="0.7" fill="none"/>
<path d="M 48 612 L 51 606 L 54 612" stroke="#3B6D11" stroke-width="0.7" fill="none"/>
<path d="M 76 612 L 79 606 L 82 612" stroke="#3B6D11" stroke-width="0.7" fill="none"/>
<path d="M 104 612 L 107 606 L 110 612" stroke="#3B6D11" stroke-width="0.7" fill="none"/>
<path d="M 132 612 L 135 606 L 138 612" stroke="#3B6D11" stroke-width="0.7" fill="none"/>
<path d="M 160 612 L 163 606 L 166 612" stroke="#3B6D11" stroke-width="0.7" fill="none"/>
<path d="M 188 612 L 191 606 L 194 612" stroke="#3B6D11" stroke-width="0.7" fill="none"/>
<path d="M 216 612 L 219 606 L 222 612" stroke="#3B6D11" stroke-width="0.7" fill="none"/>
<path d="M 244 612 L 247 606 L 250 612" stroke="#3B6D11" stroke-width="0.7" fill="none"/>
<path d="M 272 612 L 275 606 L 278 612" stroke="#3B6D11" stroke-width="0.7" fill="none"/>
<path d="M 300 612 L 303 606 L 306 612" stroke="#3B6D11" stroke-width="0.7" fill="none"/>
<path d="M 328 612 L 331 606 L 334 612" stroke="#3B6D11" stroke-width="0.7" fill="none"/>
<path d="M 356 612 L 359 606 L 362 612" stroke="#3B6D11" stroke-width="0.7" fill="none"/>
<path d="M 384 612 L 387 606 L 390 612" stroke="#3B6D11" stroke-width="0.7" fill="none"/>
<path d="M 412 612 L 415 606 L 418 612" stroke="#3B6D11" stroke-width="0.7" fill="none"/>
<path d="M 440 612 L 443 606 L 446 612" stroke="#3B6D11" stroke-width="0.7" fill="none"/>
<path d="M 468 612 L 471 606 L 474 612" stroke="#3B6D11" stroke-width="0.7" fill="none"/>
<path d="M 496 612 L 499 606 L 502 612" stroke="#3B6D11" stroke-width="0.7" fill="none"/>
<path d="M 524 612 L 527 606 L 530 612" stroke="#3B6D11" stroke-width="0.7" fill="none"/>
<path d="M 552 612 L 555 606 L 558 612" stroke="#3B6D11" stroke-width="0.7" fill="none"/>
<path d="M 580 612 L 583 606 L 586 612" stroke="#3B6D11" stroke-width="0.7" fill="none"/>
<path d="M 608 612 L 611 606 L 614 612" stroke="#3B6D11" stroke-width="0.7" fill="none"/>
<path d="M 636 612 L 639 606 L 642 612" stroke="#3B6D11" stroke-width="0.7" fill="none"/>
<path d="M 664 612 L 667 606 L 670 612" stroke="#3B6D11" stroke-width="0.7" fill="none"/>
<rect x="0" y="475" width="58" height="55" fill="#C0AC85" stroke="#5C4426" stroke-width="0.6"/>
<polygon points="0,475 29,448 58,475" fill="#7A5C2A" stroke="#5C4426" stroke-width="0.6"/>
<rect x="20" y="495" width="12" height="20" fill="#5C4426"/>
<rect x="40" y="495" width="11" height="11" fill="#A8C8E0"/>
<rect x="0" y="60" width="680" height="550" fill="#D0D6DC" fill-opacity="0.6"/>
<polygon points="0,475 29,448 58,475" fill="#F5F8FB" stroke="#7A5C2A" stroke-width="0.4"/>
<polygon points="0,475 58,475 50,470 8,470" fill="#FFFFFF"/>
<rect x="0" y="608" width="680" height="60" fill="#F5F8FB"/>
<path d="M 0 608 Q 90 600 180 606 Q 270 612 360 604 Q 450 600 540 608 Q 600 612 680 605" stroke="#C9D2DA" stroke-width="1" fill="none"/>
<circle cx="60" cy="90" r="1.6" fill="#FFFFFF" fill-opacity="0.85"/>
<circle cx="107" cy="143" r="1.1" fill="#FFFFFF" fill-opacity="0.85"/>
<circle cx="154" cy="196" r="1.1" fill="#FFFFFF" fill-opacity="0.85"/>
<circle cx="201" cy="249" r="1.6" fill="#FFFFFF" fill-opacity="0.85"/>
<circle cx="248" cy="302" r="1.1" fill="#FFFFFF" fill-opacity="0.85"/>
<circle cx="295" cy="355" r="1.1" fill="#FFFFFF" fill-opacity="0.85"/>
<circle cx="342" cy="408" r="1.6" fill="#FFFFFF" fill-opacity="0.85"/>
<circle cx="389" cy="461" r="1.1" fill="#FFFFFF" fill-opacity="0.85"/>
<circle cx="436" cy="514" r="1.1" fill="#FFFFFF" fill-opacity="0.85"/>
<circle cx="483" cy="567" r="1.6" fill="#FFFFFF" fill-opacity="0.85"/>
<circle cx="530" cy="140" r="1.1" fill="#FFFFFF" fill-opacity="0.85"/>
<circle cx="577" cy="193" r="1.1" fill="#FFFFFF" fill-opacity="0.85"/>
<circle cx="624" cy="246" r="1.6" fill="#FFFFFF" fill-opacity="0.85"/>
<circle cx="71" cy="299" r="1.1" fill="#FFFFFF" fill-opacity="0.85"/>
<circle cx="118" cy="352" r="1.1" fill="#FFFFFF" fill-opacity="0.85"/>
<circle cx="165" cy="405" r="1.6" fill="#FFFFFF" fill-opacity="0.85"/>
<circle cx="212" cy="458" r="1.1" fill="#FFFFFF" fill-opacity="0.85"/>
<circle cx="259" cy="511" r="1.1" fill="#FFFFFF" fill-opacity="0.85"/>
<circle cx="306" cy="564" r="1.6" fill="#FFFFFF" fill-opacity="0.85"/>
<circle cx="353" cy="137" r="1.1" fill="#FFFFFF" fill-opacity="0.85"/>
<circle cx="400" cy="190" r="1.1" fill="#FFFFFF" fill-opacity="0.85"/>
<circle cx="447" cy="243" r="1.6" fill="#FFFFFF" fill-opacity="0.85"/>
<circle cx="494" cy="296" r="1.1" fill="#FFFFFF" fill-opacity="0.85"/>
<circle cx="541" cy="349" r="1.1" fill="#FFFFFF" fill-opacity="0.85"/>
<circle cx="588" cy="402" r="1.6" fill="#FFFFFF" fill-opacity="0.85"/>
<circle cx="635" cy="455" r="1.1" fill="#FFFFFF" fill-opacity="0.85"/>
<polygon points="155,68 165,68 169,610 151,610" fill="#9CA0AC" stroke="#4C5260" stroke-width="0.5"/>
<line x1="160" y1="68" x2="160" y2="610" stroke="#4C5260" stroke-width="0.3" opacity="0.6"/>
<rect x="147" y="607" width="26" height="6" fill="#6C7280" stroke="#3A3F4A" stroke-width="0.5"/>
<rect x="149" y="613" width="22" height="45" fill="#7A7A7A" fill-opacity="0.3" stroke="#3A3F4A" stroke-width="0.4" stroke-dasharray="3 2"/>
<circle cx="156" cy="610" r="0.8" fill="#2A2F3A"/>
<circle cx="159" cy="610" r="0.8" fill="#2A2F3A"/>
<circle cx="162" cy="610" r="0.8" fill="#2A2F3A"/>
<circle cx="165" cy="610" r="0.8" fill="#2A2F3A"/>
<polygon points="355,68 365,68 369,610 351,610" fill="#9CA0AC" stroke="#4C5260" stroke-width="0.5"/>
<line x1="360" y1="68" x2="360" y2="610" stroke="#4C5260" stroke-width="0.3" opacity="0.6"/>
<rect x="347" y="607" width="26" height="6" fill="#6C7280" stroke="#3A3F4A" stroke-width="0.5"/>
<rect x="349" y="613" width="22" height="45" fill="#7A7A7A" fill-opacity="0.3" stroke="#3A3F4A" stroke-width="0.4" stroke-dasharray="3 2"/>
<circle cx="356" cy="610" r="0.8" fill="#2A2F3A"/>
<circle cx="359" cy="610" r="0.8" fill="#2A2F3A"/>
<circle cx="362" cy="610" r="0.8" fill="#2A2F3A"/>
<circle cx="365" cy="610" r="0.8" fill="#2A2F3A"/>
<rect x="145" y="75" width="230" height="10" fill="#9CA0AC" stroke="#4C5260" stroke-width="0.7"/>
<polygon points="155,85 165,85 165,105 155,105" fill="#6C7280" stroke="#3A3F4A" stroke-width="0.4"/>
<polygon points="355,85 365,85 365,105 355,105" fill="#6C7280" stroke="#3A3F4A" stroke-width="0.4"/>
<line x1="160" y1="200" x2="360" y2="360" stroke="#6C7280" stroke-width="2.5"/>
<line x1="360" y1="200" x2="160" y2="360" stroke="#6C7280" stroke-width="2.5"/>
<circle cx="260" cy="280" r="2.5" fill="#3A3F4A"/>
<line x1="160" y1="85" x2="160" y2="147" stroke="#4A4A4A" stroke-width="1.4"/>
<ellipse cx="160" cy="90.63636363636364" rx="3.5" ry="1.1" fill="#D2D2D2" stroke="#3C3C3C" stroke-width="0.3"/>
<ellipse cx="160" cy="96.27272727272728" rx="3.5" ry="1.1" fill="#D2D2D2" stroke="#3C3C3C" stroke-width="0.3"/>
<ellipse cx="160" cy="101.9090909090909" rx="3.5" ry="1.1" fill="#D2D2D2" stroke="#3C3C3C" stroke-width="0.3"/>
<ellipse cx="160" cy="107.54545454545455" rx="3.5" ry="1.1" fill="#D2D2D2" stroke="#3C3C3C" stroke-width="0.3"/>
<ellipse cx="160" cy="113.18181818181819" rx="3.5" ry="1.1" fill="#D2D2D2" stroke="#3C3C3C" stroke-width="0.3"/>
<ellipse cx="160" cy="118.81818181818181" rx="3.5" ry="1.1" fill="#D2D2D2" stroke="#3C3C3C" stroke-width="0.3"/>
<ellipse cx="160" cy="124.45454545454545" rx="3.5" ry="1.1" fill="#D2D2D2" stroke="#3C3C3C" stroke-width="0.3"/>
<ellipse cx="160" cy="130.0909090909091" rx="3.5" ry="1.1" fill="#D2D2D2" stroke="#3C3C3C" stroke-width="0.3"/>
<ellipse cx="160" cy="135.72727272727275" rx="3.5" ry="1.1" fill="#D2D2D2" stroke="#3C3C3C" stroke-width="0.3"/>
<ellipse cx="160" cy="141.36363636363637" rx="3.5" ry="1.1" fill="#D2D2D2" stroke="#3C3C3C" stroke-width="0.3"/>
<rect x="157" y="82" width="6" height="3" fill="#5F5E5A" stroke="#2C2C2A" stroke-width="0.3"/>
<rect x="156" y="147" width="8" height="3" fill="#5F5E5A" stroke="#2C2C2A" stroke-width="0.3"/>
<line x1="260" y1="85" x2="260" y2="147" stroke="#4A4A4A" stroke-width="1.4"/>
<ellipse cx="260" cy="90.63636363636364" rx="3.5" ry="1.1" fill="#D2D2D2" stroke="#3C3C3C" stroke-width="0.3"/>
<ellipse cx="260" cy="96.27272727272728" rx="3.5" ry="1.1" fill="#D2D2D2" stroke="#3C3C3C" stroke-width="0.3"/>
<ellipse cx="260" cy="101.9090909090909" rx="3.5" ry="1.1" fill="#D2D2D2" stroke="#3C3C3C" stroke-width="0.3"/>
<ellipse cx="260" cy="107.54545454545455" rx="3.5" ry="1.1" fill="#D2D2D2" stroke="#3C3C3C" stroke-width="0.3"/>
<ellipse cx="260" cy="113.18181818181819" rx="3.5" ry="1.1" fill="#D2D2D2" stroke="#3C3C3C" stroke-width="0.3"/>
<ellipse cx="260" cy="118.81818181818181" rx="3.5" ry="1.1" fill="#D2D2D2" stroke="#3C3C3C" stroke-width="0.3"/>
<ellipse cx="260" cy="124.45454545454545" rx="3.5" ry="1.1" fill="#D2D2D2" stroke="#3C3C3C" stroke-width="0.3"/>
<ellipse cx="260" cy="130.0909090909091" rx="3.5" ry="1.1" fill="#D2D2D2" stroke="#3C3C3C" stroke-width="0.3"/>
<ellipse cx="260" cy="135.72727272727275" rx="3.5" ry="1.1" fill="#D2D2D2" stroke="#3C3C3C" stroke-width="0.3"/>
<ellipse cx="260" cy="141.36363636363637" rx="3.5" ry="1.1" fill="#D2D2D2" stroke="#3C3C3C" stroke-width="0.3"/>
<rect x="257" y="82" width="6" height="3" fill="#5F5E5A" stroke="#2C2C2A" stroke-width="0.3"/>
<rect x="256" y="147" width="8" height="3" fill="#5F5E5A" stroke="#2C2C2A" stroke-width="0.3"/>
<line x1="360" y1="85" x2="360" y2="147" stroke="#4A4A4A" stroke-width="1.4"/>
<ellipse cx="360" cy="90.63636363636364" rx="3.5" ry="1.1" fill="#D2D2D2" stroke="#3C3C3C" stroke-width="0.3"/>
<ellipse cx="360" cy="96.27272727272728" rx="3.5" ry="1.1" fill="#D2D2D2" stroke="#3C3C3C" stroke-width="0.3"/>
<ellipse cx="360" cy="101.9090909090909" rx="3.5" ry="1.1" fill="#D2D2D2" stroke="#3C3C3C" stroke-width="0.3"/>
<ellipse cx="360" cy="107.54545454545455" rx="3.5" ry="1.1" fill="#D2D2D2" stroke="#3C3C3C" stroke-width="0.3"/>
<ellipse cx="360" cy="113.18181818181819" rx="3.5" ry="1.1" fill="#D2D2D2" stroke="#3C3C3C" stroke-width="0.3"/>
<ellipse cx="360" cy="118.81818181818181" rx="3.5" ry="1.1" fill="#D2D2D2" stroke="#3C3C3C" stroke-width="0.3"/>
<ellipse cx="360" cy="124.45454545454545" rx="3.5" ry="1.1" fill="#D2D2D2" stroke="#3C3C3C" stroke-width="0.3"/>
<ellipse cx="360" cy="130.0909090909091" rx="3.5" ry="1.1" fill="#D2D2D2" stroke="#3C3C3C" stroke-width="0.3"/>
<ellipse cx="360" cy="135.72727272727275" rx="3.5" ry="1.1" fill="#D2D2D2" stroke="#3C3C3C" stroke-width="0.3"/>
<ellipse cx="360" cy="141.36363636363637" rx="3.5" ry="1.1" fill="#D2D2D2" stroke="#3C3C3C" stroke-width="0.3"/>
<rect x="357" y="82" width="6" height="3" fill="#5F5E5A" stroke="#2C2C2A" stroke-width="0.3"/>
<rect x="356" y="147" width="8" height="3" fill="#5F5E5A" stroke="#2C2C2A" stroke-width="0.3"/>
<line x1="0" y1="145" x2="680" y2="145" stroke="#A32D2D" stroke-width="0.9" opacity="0.5"/>
<circle cx="160" cy="145" r="2.5" fill="#A32D2D" stroke="#501313" stroke-width="0.3"/>
<line x1="0" y1="145" x2="680" y2="145" stroke="#A32D2D" stroke-width="0.9" opacity="0.5"/>
<circle cx="260" cy="145" r="2.5" fill="#A32D2D" stroke="#501313" stroke-width="0.3"/>
<circle cx="360" cy="145" r="2.5" fill="#A32D2D" stroke="#501313" stroke-width="0.3"/>
<line x1="0" y1="50" x2="680" y2="50" stroke="#5F5E5A" stroke-width="0.6"/>
<circle cx="260" cy="50" r="1.8" fill="#3C3C3C"/>
<line x1="169" y1="480" x2="169" y2="610" stroke="#1D9E75" stroke-width="0.8"/>
<rect x="166" y="510" width="6" height="100" fill="#5F5E5A" stroke="#2C2C2A" stroke-width="0.3"/>
<line x1="369" y1="480" x2="369" y2="610" stroke="#1D9E75" stroke-width="0.8"/>
<rect x="366" y="510" width="6" height="100" fill="#5F5E5A" stroke="#2C2C2A" stroke-width="0.3"/>
<rect x="420" y="75" width="240" height="82" rx="6" fill="#EAF3DE" stroke="#3B6D11" stroke-width="1.4"/>
<text x="430" y="93" font-family="Helvetica, Arial, sans-serif" font-size="13" font-weight="600" fill="#173404">Steel H-frame in snow</text>
<text x="430" y="108" font-family="Helvetica, Arial, sans-serif" font-size="11" fill="#173404">138 kV phases clear</text>
<text x="430" y="123" font-family="Helvetica, Arial, sans-serif" font-size="11" fill="#173404">ROW snow-covered, compliant</text>
<text x="430" y="138" font-family="Helvetica, Arial, sans-serif" font-size="11" fill="#173404">Routine winter operations</text>
<rect x="242" y="119" width="85.0" height="15" fill="#FFFFFF" fill-opacity="0.78" rx="2"/>
<text x="245" y="130" font-family="Helvetica, Arial, sans-serif" font-size="10" fill="#3D3D3A">3-phase 138 kV</text>
<rect x="17" y="36" width="30.0" height="15" fill="#FFFFFF" fill-opacity="0.78" rx="2"/>
<text x="20" y="47" font-family="Helvetica, Arial, sans-serif" font-size="10" fill="#3D3D3A">OHGW</text>
<rect x="242" y="186" width="79.5" height="15" fill="#FFFFFF" fill-opacity="0.78" rx="2"/>
<text x="245" y="197" font-family="Helvetica, Arial, sans-serif" font-size="10" fill="#3D3D3A">steel X-brace</text>
<rect x="0" y="660" width="680" height="140" fill="#F1EFE8"/>
<line x1="0" y1="660" x2="680" y2="660" stroke="#73726c" stroke-width="0.6"/>
<text x="24" y="682" font-family="Helvetica, Arial, sans-serif" font-size="13" font-weight="600" fill="#2C2C2A">Regulation citations</text>
<text x="24" y="700" font-family="Helvetica, Arial, sans-serif" font-size="11" fill="#444441">NESC Rule 250.A: snow loading</text>
<text x="24" y="716" font-family="Helvetica, Arial, sans-serif" font-size="11" fill="#444441">NESC Rule 235.B: phase separation</text>
<text x="24" y="732" font-family="Helvetica, Arial, sans-serif" font-size="11" fill="#444441">ASCE 48 steel pole standards</text>
<text x="24" y="748" font-family="Helvetica, Arial, sans-serif" font-size="11" fill="#444441">NERC FAC-003 transmission VM</text>
<text x="24" y="764" font-family="Helvetica, Arial, sans-serif" font-size="11" fill="#444441">Utility O and M: transmission winter patrol</text>
<rect x="470" y="668" width="200" height="100" rx="4" fill="#EAF3DE" stroke="#3B6D11" stroke-width="0.6"/>
<text x="478" y="684" font-family="Helvetica, Arial, sans-serif" font-size="11" font-weight="600" fill="#173404">Annotation metadata</text>
<text x="478" y="700" font-family="Helvetica, Arial, sans-serif" font-size="10" fill="#173404">pole_type: hfs138</text>
<text x="478" y="713" font-family="Helvetica, Arial, sans-serif" font-size="10" fill="#173404">scene_type: weather_context</text>
<text x="478" y="726" font-family="Helvetica, Arial, sans-serif" font-size="10" fill="#173404">weather_condition: snow_accumulation</text>
<text x="478" y="739" font-family="Helvetica, Arial, sans-serif" font-size="10" fill="#173404">framing: compliant_with_weather</text>
</svg>