<svg xmlns="http://www.w3.org/2000/svg" viewBox="0 0 680 800" width="680" height="800">
<title>Transmission compliant at max thermal sag</title>
<desc>Pole compliance training scene. Severity: COMPLIANT BASELINE. Hazard: transmission summer compliant.</desc>
<rect x="0" y="0" width="680" height="60" fill="#3B6D11"/>
<text x="24" y="38" font-family="Helvetica, Arial, sans-serif" font-size="20" font-weight="600" fill="#FFFFFF">COMPLIANT BASELINE</text>
<text x="660" y="22" font-family="Helvetica, Arial, sans-serif" font-size="10" fill="#EAF3DE" text-anchor="end">Reference scene, no violation</text>
<text x="660" y="37" font-family="Helvetica, Arial, sans-serif" font-size="10" fill="#EAF3DE" text-anchor="end">Hazard: transmission summer compliant</text>
<text x="660" y="52" font-family="Helvetica, Arial, sans-serif" font-size="10" fill="#EAF3DE" text-anchor="end">Scene: hfw69_w_summer_compliant</text>
<rect x="0" y="60" width="680" height="550" fill="#EAF1F7"/>
<rect x="0" y="610" width="680" height="50" fill="#D9C8A8"/>
<line x1="0" y1="610" x2="680" y2="610" stroke="#7A5C2A" stroke-width="1"/>
<path d="M 20 612 L 23 606 L 26 612" stroke="#3B6D11" stroke-width="0.7" fill="none"/>
<path d="M 48 612 L 51 606 L 54 612" stroke="#3B6D11" stroke-width="0.7" fill="none"/>
<path d="M 76 612 L 79 606 L 82 612" stroke="#3B6D11" stroke-width="0.7" fill="none"/>
<path d="M 104 612 L 107 606 L 110 612" stroke="#3B6D11" stroke-width="0.7" fill="none"/>
<path d="M 132 612 L 135 606 L 138 612" stroke="#3B6D11" stroke-width="0.7" fill="none"/>
<path d="M 160 612 L 163 606 L 166 612" stroke="#3B6D11" stroke-width="0.7" fill="none"/>
<path d="M 188 612 L 191 606 L 194 612" stroke="#3B6D11" stroke-width="0.7" fill="none"/>
<path d="M 216 612 L 219 606 L 222 612" stroke="#3B6D11" stroke-width="0.7" fill="none"/>
<path d="M 244 612 L 247 606 L 250 612" stroke="#3B6D11" stroke-width="0.7" fill="none"/>
<path d="M 272 612 L 275 606 L 278 612" stroke="#3B6D11" stroke-width="0.7" fill="none"/>
<path d="M 300 612 L 303 606 L 306 612" stroke="#3B6D11" stroke-width="0.7" fill="none"/>
<path d="M 328 612 L 331 606 L 334 612" stroke="#3B6D11" stroke-width="0.7" fill="none"/>
<path d="M 356 612 L 359 606 L 362 612" stroke="#3B6D11" stroke-width="0.7" fill="none"/>
<path d="M 384 612 L 387 606 L 390 612" stroke="#3B6D11" stroke-width="0.7" fill="none"/>
<path d="M 412 612 L 415 606 L 418 612" stroke="#3B6D11" stroke-width="0.7" fill="none"/>
<path d="M 440 612 L 443 606 L 446 612" stroke="#3B6D11" stroke-width="0.7" fill="none"/>
<path d="M 468 612 L 471 606 L 474 612" stroke="#3B6D11" stroke-width="0.7" fill="none"/>
<path d="M 496 612 L 499 606 L 502 612" stroke="#3B6D11" stroke-width="0.7" fill="none"/>
<path d="M 524 612 L 527 606 L 530 612" stroke="#3B6D11" stroke-width="0.7" fill="none"/>
<path d="M 552 612 L 555 606 L 558 612" stroke="#3B6D11" stroke-width="0.7" fill="none"/>
<path d="M 580 612 L 583 606 L 586 612" stroke="#3B6D11" stroke-width="0.7" fill="none"/>
<path d="M 608 612 L 611 606 L 614 612" stroke="#3B6D11" stroke-width="0.7" fill="none"/>
<path d="M 636 612 L 639 606 L 642 612" stroke="#3B6D11" stroke-width="0.7" fill="none"/>
<path d="M 664 612 L 667 606 L 670 612" stroke="#3B6D11" stroke-width="0.7" fill="none"/>
<rect x="0" y="475" width="58" height="55" fill="#C0AC85" stroke="#5C4426" stroke-width="0.6"/>
<polygon points="0,475 29,448 58,475" fill="#7A5C2A" stroke="#5C4426" stroke-width="0.6"/>
<rect x="20" y="495" width="12" height="20" fill="#5C4426"/>
<rect x="40" y="495" width="11" height="11" fill="#A8C8E0"/>
<rect x="0" y="60" width="680" height="550" fill="#FFE8B0" fill-opacity="0.22"/>
<circle cx="600" cy="115" r="36" fill="#FFE585" fill-opacity="0.55"/>
<circle cx="600" cy="115" r="22" fill="#FFF4C0" fill-opacity="0.8"/>
<path d="M 40 600 Q 48 595 56 600" stroke="#E0B870" stroke-width="0.6" fill="none" opacity="0.4"/>
<path d="M 80 600 Q 88 595 96 600" stroke="#E0B870" stroke-width="0.6" fill="none" opacity="0.4"/>
<path d="M 120 600 Q 128 595 136 600" stroke="#E0B870" stroke-width="0.6" fill="none" opacity="0.4"/>
<path d="M 160 600 Q 168 595 176 600" stroke="#E0B870" stroke-width="0.6" fill="none" opacity="0.4"/>
<path d="M 200 600 Q 208 595 216 600" stroke="#E0B870" stroke-width="0.6" fill="none" opacity="0.4"/>
<path d="M 240 600 Q 248 595 256 600" stroke="#E0B870" stroke-width="0.6" fill="none" opacity="0.4"/>
<path d="M 280 600 Q 288 595 296 600" stroke="#E0B870" stroke-width="0.6" fill="none" opacity="0.4"/>
<path d="M 320 600 Q 328 595 336 600" stroke="#E0B870" stroke-width="0.6" fill="none" opacity="0.4"/>
<path d="M 360 600 Q 368 595 376 600" stroke="#E0B870" stroke-width="0.6" fill="none" opacity="0.4"/>
<path d="M 400 600 Q 408 595 416 600" stroke="#E0B870" stroke-width="0.6" fill="none" opacity="0.4"/>
<path d="M 440 600 Q 448 595 456 600" stroke="#E0B870" stroke-width="0.6" fill="none" opacity="0.4"/>
<path d="M 480 600 Q 488 595 496 600" stroke="#E0B870" stroke-width="0.6" fill="none" opacity="0.4"/>
<path d="M 520 600 Q 528 595 536 600" stroke="#E0B870" stroke-width="0.6" fill="none" opacity="0.4"/>
<path d="M 560 600 Q 568 595 576 600" stroke="#E0B870" stroke-width="0.6" fill="none" opacity="0.4"/>
<path d="M 600 600 Q 608 595 616 600" stroke="#E0B870" stroke-width="0.6" fill="none" opacity="0.4"/>
<path d="M 640 600 Q 648 595 656 600" stroke="#E0B870" stroke-width="0.6" fill="none" opacity="0.4"/>
<polygon points="155,80 165,80 169,610 151,610" fill="#A07C50" stroke="#5C4426" stroke-width="1"/>
<polygon points="151,610 169,610 171,710 149,710" fill="#A07C50" fill-opacity="0.45" stroke="#5C4426" stroke-width="0.7" stroke-dasharray="3 2"/>
<polygon points="355,80 365,80 369,610 351,610" fill="#A07C50" stroke="#5C4426" stroke-width="1"/>
<polygon points="351,610 369,610 371,710 349,710" fill="#A07C50" fill-opacity="0.45" stroke="#5C4426" stroke-width="0.7" stroke-dasharray="3 2"/>
<rect x="145" y="88" width="230" height="10" fill="#6B4E2A" stroke="#3C2810" stroke-width="0.7"/>
<line x1="160" y1="118" x2="135" y2="98" stroke="#3C2810" stroke-width="0.9"/>
<line x1="160" y1="118" x2="185" y2="98" stroke="#3C2810" stroke-width="0.9"/>
<line x1="360" y1="118" x2="335" y2="98" stroke="#3C2810" stroke-width="0.9"/>
<line x1="360" y1="118" x2="385" y2="98" stroke="#3C2810" stroke-width="0.9"/>
<line x1="160" y1="200" x2="360" y2="360" stroke="#6B4E2A" stroke-width="3"/>
<line x1="360" y1="200" x2="160" y2="360" stroke="#6B4E2A" stroke-width="3"/>
<circle cx="260" cy="280" r="3" fill="#3C2810" stroke="#1C1C1C" stroke-width="0.4"/>
<ellipse cx="160" cy="101.5" rx="3.2" ry="2.2" fill="#D2D2D2" stroke="#3C3C3C" stroke-width="0.4"/>
<ellipse cx="160" cy="108.5" rx="3.2" ry="2.2" fill="#D2D2D2" stroke="#3C3C3C" stroke-width="0.4"/>
<ellipse cx="160" cy="115.5" rx="3.2" ry="2.2" fill="#D2D2D2" stroke="#3C3C3C" stroke-width="0.4"/>
<ellipse cx="160" cy="122.5" rx="3.2" ry="2.2" fill="#D2D2D2" stroke="#3C3C3C" stroke-width="0.4"/>
<ellipse cx="160" cy="129.5" rx="3.2" ry="2.2" fill="#D2D2D2" stroke="#3C3C3C" stroke-width="0.4"/>
<ellipse cx="160" cy="136.5" rx="3.2" ry="2.2" fill="#D2D2D2" stroke="#3C3C3C" stroke-width="0.4"/>
<rect x="157" y="95" width="6" height="3" fill="#5F5E5A" stroke="#2C2C2A" stroke-width="0.3"/>
<rect x="156" y="140" width="8" height="3" fill="#5F5E5A" stroke="#2C2C2A" stroke-width="0.3"/>
<ellipse cx="260" cy="101.5" rx="3.2" ry="2.2" fill="#D2D2D2" stroke="#3C3C3C" stroke-width="0.4"/>
<ellipse cx="260" cy="108.5" rx="3.2" ry="2.2" fill="#D2D2D2" stroke="#3C3C3C" stroke-width="0.4"/>
<ellipse cx="260" cy="115.5" rx="3.2" ry="2.2" fill="#D2D2D2" stroke="#3C3C3C" stroke-width="0.4"/>
<ellipse cx="260" cy="122.5" rx="3.2" ry="2.2" fill="#D2D2D2" stroke="#3C3C3C" stroke-width="0.4"/>
<ellipse cx="260" cy="129.5" rx="3.2" ry="2.2" fill="#D2D2D2" stroke="#3C3C3C" stroke-width="0.4"/>
<ellipse cx="260" cy="136.5" rx="3.2" ry="2.2" fill="#D2D2D2" stroke="#3C3C3C" stroke-width="0.4"/>
<rect x="257" y="95" width="6" height="3" fill="#5F5E5A" stroke="#2C2C2A" stroke-width="0.3"/>
<rect x="256" y="140" width="8" height="3" fill="#5F5E5A" stroke="#2C2C2A" stroke-width="0.3"/>
<ellipse cx="360" cy="101.5" rx="3.2" ry="2.2" fill="#D2D2D2" stroke="#3C3C3C" stroke-width="0.4"/>
<ellipse cx="360" cy="108.5" rx="3.2" ry="2.2" fill="#D2D2D2" stroke="#3C3C3C" stroke-width="0.4"/>
<ellipse cx="360" cy="115.5" rx="3.2" ry="2.2" fill="#D2D2D2" stroke="#3C3C3C" stroke-width="0.4"/>
<ellipse cx="360" cy="122.5" rx="3.2" ry="2.2" fill="#D2D2D2" stroke="#3C3C3C" stroke-width="0.4"/>
<ellipse cx="360" cy="129.5" rx="3.2" ry="2.2" fill="#D2D2D2" stroke="#3C3C3C" stroke-width="0.4"/>
<ellipse cx="360" cy="136.5" rx="3.2" ry="2.2" fill="#D2D2D2" stroke="#3C3C3C" stroke-width="0.4"/>
<rect x="357" y="95" width="6" height="3" fill="#5F5E5A" stroke="#2C2C2A" stroke-width="0.3"/>
<rect x="356" y="140" width="8" height="3" fill="#5F5E5A" stroke="#2C2C2A" stroke-width="0.3"/>
<line x1="0" y1="142" x2="680" y2="142" stroke="#A32D2D" stroke-width="0.8" opacity="0.5"/>
<circle cx="160" cy="142" r="2.5" fill="#A32D2D" stroke="#501313" stroke-width="0.3"/>
<line x1="0" y1="142" x2="680" y2="142" stroke="#A32D2D" stroke-width="0.8" opacity="0.5"/>
<circle cx="260" cy="142" r="2.5" fill="#A32D2D" stroke="#501313" stroke-width="0.3"/>
<line x1="0" y1="142" x2="680" y2="142" stroke="#A32D2D" stroke-width="0.8" opacity="0.5"/>
<circle cx="360" cy="142" r="2.5" fill="#A32D2D" stroke="#501313" stroke-width="0.3"/>
<line x1="0" y1="65" x2="680" y2="65" stroke="#5F5E5A" stroke-width="0.6"/>
<circle cx="260" cy="65" r="1.8" fill="#3C3C3C"/>
<line x1="169" y1="480" x2="169" y2="610" stroke="#1D9E75" stroke-width="0.8"/>
<rect x="166" y="510" width="6" height="100" fill="#5F5E5A" stroke="#2C2C2A" stroke-width="0.3"/>
<line x1="369" y1="480" x2="369" y2="610" stroke="#1D9E75" stroke-width="0.8"/>
<rect x="366" y="510" width="6" height="100" fill="#5F5E5A" stroke="#2C2C2A" stroke-width="0.3"/>
<path d="M 0 142 Q 340.0 177.0 680 142" stroke="#3C3C3C" stroke-width="1.1" fill="none"/>
<rect x="420" y="75" width="240" height="82" rx="6" fill="#EAF3DE" stroke="#3B6D11" stroke-width="1.4"/>
<text x="430" y="93" font-family="Helvetica, Arial, sans-serif" font-size="13" font-weight="600" fill="#173404">Transmission summer max sag</text>
<text x="430" y="108" font-family="Helvetica, Arial, sans-serif" font-size="11" fill="#173404">Conductor temp 100 C</text>
<text x="430" y="123" font-family="Helvetica, Arial, sans-serif" font-size="11" fill="#173404">Mid-span clearance OK</text>
<text x="430" y="138" font-family="Helvetica, Arial, sans-serif" font-size="11" fill="#173404">Compliant at design conditions</text>
<rect x="242" y="116" width="79.5" height="15" fill="#FFFFFF" fill-opacity="0.78" rx="2"/>
<text x="245" y="127" font-family="Helvetica, Arial, sans-serif" font-size="10" fill="#3D3D3A">3-phase 69 kV</text>
<rect x="17" y="51" width="30.0" height="15" fill="#FFFFFF" fill-opacity="0.78" rx="2"/>
<text x="20" y="62" font-family="Helvetica, Arial, sans-serif" font-size="10" fill="#3D3D3A">OHGW</text>
<rect x="242" y="186" width="57.50000000000001" height="15" fill="#FFFFFF" fill-opacity="0.78" rx="2"/>
<text x="245" y="197" font-family="Helvetica, Arial, sans-serif" font-size="10" fill="#3D3D3A">X-bracing</text>
<rect x="0" y="660" width="680" height="140" fill="#F1EFE8"/>
<line x1="0" y1="660" x2="680" y2="660" stroke="#73726c" stroke-width="0.6"/>
<text x="24" y="682" font-family="Helvetica, Arial, sans-serif" font-size="13" font-weight="600" fill="#2C2C2A">Regulation citations</text>
<text x="24" y="700" font-family="Helvetica, Arial, sans-serif" font-size="11" fill="#444441">NESC Rule 232.B: transmission clearance</text>
<text x="24" y="716" font-family="Helvetica, Arial, sans-serif" font-size="11" fill="#444441">NESC Rule 261.C: max operating temp sag</text>
<text x="24" y="732" font-family="Helvetica, Arial, sans-serif" font-size="11" fill="#444441">IEEE Std 738: thermal rating</text>
<text x="24" y="748" font-family="Helvetica, Arial, sans-serif" font-size="11" fill="#444441">ANSI O5.1 transmission pole</text>
<text x="24" y="764" font-family="Helvetica, Arial, sans-serif" font-size="11" fill="#444441">NERC FAC-003 transmission limits</text>
<rect x="470" y="668" width="200" height="100" rx="4" fill="#EAF3DE" stroke="#3B6D11" stroke-width="0.6"/>
<text x="478" y="684" font-family="Helvetica, Arial, sans-serif" font-size="11" font-weight="600" fill="#173404">Annotation metadata</text>
<text x="478" y="700" font-family="Helvetica, Arial, sans-serif" font-size="10" fill="#173404">pole_type: hfw69</text>
<text x="478" y="713" font-family="Helvetica, Arial, sans-serif" font-size="10" fill="#173404">scene_type: weather_context</text>
<text x="478" y="726" font-family="Helvetica, Arial, sans-serif" font-size="10" fill="#173404">weather_condition: summer_thermal</text>
<text x="478" y="739" font-family="Helvetica, Arial, sans-serif" font-size="10" fill="#173404">framing: compliant_with_weather</text>
<text x="478" y="752" font-family="Helvetica, Arial, sans-serif" font-size="10" fill="#173404">conductor_temp_C: 100</text>
</svg>