<svg xmlns="http://www.w3.org/2000/svg" viewBox="0 0 680 800" width="680" height="800">
<title>Snow buildup obscuring pole identification tag</title>
<desc>Pole compliance training scene. Severity: DE MINIMIS. Hazard: snow obscuring pole ID.</desc>
<rect x="0" y="0" width="680" height="60" fill="#5F5E5A"/>
<text x="24" y="38" font-family="Helvetica, Arial, sans-serif" font-size="20" font-weight="600" fill="#FFFFFF">DE MINIMIS</text>
<text x="660" y="22" font-family="Helvetica, Arial, sans-serif" font-size="10" fill="#F1EFE8" text-anchor="end">OSHA de minimis</text>
<text x="660" y="37" font-family="Helvetica, Arial, sans-serif" font-size="10" fill="#F1EFE8" text-anchor="end">Hazard: snow obscuring pole ID</text>
<text x="660" y="52" font-family="Helvetica, Arial, sans-serif" font-size="10" fill="#F1EFE8" text-anchor="end">Scene: ju40c4_w_snow_obscured_tag</text>
<rect x="0" y="60" width="680" height="550" fill="#EAF1F7"/>
<rect x="0" y="610" width="680" height="50" fill="#D9C8A8"/>
<line x1="0" y1="610" x2="680" y2="610" stroke="#7A5C2A" stroke-width="1"/>
<path d="M 20 612 L 23 606 L 26 612" stroke="#3B6D11" stroke-width="0.7" fill="none"/>
<path d="M 48 612 L 51 606 L 54 612" stroke="#3B6D11" stroke-width="0.7" fill="none"/>
<path d="M 76 612 L 79 606 L 82 612" stroke="#3B6D11" stroke-width="0.7" fill="none"/>
<path d="M 104 612 L 107 606 L 110 612" stroke="#3B6D11" stroke-width="0.7" fill="none"/>
<path d="M 132 612 L 135 606 L 138 612" stroke="#3B6D11" stroke-width="0.7" fill="none"/>
<path d="M 160 612 L 163 606 L 166 612" stroke="#3B6D11" stroke-width="0.7" fill="none"/>
<path d="M 188 612 L 191 606 L 194 612" stroke="#3B6D11" stroke-width="0.7" fill="none"/>
<path d="M 216 612 L 219 606 L 222 612" stroke="#3B6D11" stroke-width="0.7" fill="none"/>
<path d="M 244 612 L 247 606 L 250 612" stroke="#3B6D11" stroke-width="0.7" fill="none"/>
<path d="M 272 612 L 275 606 L 278 612" stroke="#3B6D11" stroke-width="0.7" fill="none"/>
<path d="M 300 612 L 303 606 L 306 612" stroke="#3B6D11" stroke-width="0.7" fill="none"/>
<path d="M 328 612 L 331 606 L 334 612" stroke="#3B6D11" stroke-width="0.7" fill="none"/>
<path d="M 356 612 L 359 606 L 362 612" stroke="#3B6D11" stroke-width="0.7" fill="none"/>
<path d="M 384 612 L 387 606 L 390 612" stroke="#3B6D11" stroke-width="0.7" fill="none"/>
<path d="M 412 612 L 415 606 L 418 612" stroke="#3B6D11" stroke-width="0.7" fill="none"/>
<path d="M 440 612 L 443 606 L 446 612" stroke="#3B6D11" stroke-width="0.7" fill="none"/>
<path d="M 468 612 L 471 606 L 474 612" stroke="#3B6D11" stroke-width="0.7" fill="none"/>
<path d="M 496 612 L 499 606 L 502 612" stroke="#3B6D11" stroke-width="0.7" fill="none"/>
<path d="M 524 612 L 527 606 L 530 612" stroke="#3B6D11" stroke-width="0.7" fill="none"/>
<path d="M 552 612 L 555 606 L 558 612" stroke="#3B6D11" stroke-width="0.7" fill="none"/>
<path d="M 580 612 L 583 606 L 586 612" stroke="#3B6D11" stroke-width="0.7" fill="none"/>
<path d="M 608 612 L 611 606 L 614 612" stroke="#3B6D11" stroke-width="0.7" fill="none"/>
<path d="M 636 612 L 639 606 L 642 612" stroke="#3B6D11" stroke-width="0.7" fill="none"/>
<path d="M 664 612 L 667 606 L 670 612" stroke="#3B6D11" stroke-width="0.7" fill="none"/>
<rect x="0" y="475" width="58" height="55" fill="#C0AC85" stroke="#5C4426" stroke-width="0.6"/>
<polygon points="0,475 29,448 58,475" fill="#7A5C2A" stroke="#5C4426" stroke-width="0.6"/>
<rect x="20" y="495" width="12" height="20" fill="#5C4426"/>
<rect x="40" y="495" width="11" height="11" fill="#A8C8E0"/>
<rect x="0" y="60" width="680" height="550" fill="#D0D6DC" fill-opacity="0.6"/>
<polygon points="0,475 29,448 58,475" fill="#F5F8FB" stroke="#7A5C2A" stroke-width="0.4"/>
<polygon points="0,475 58,475 50,470 8,470" fill="#FFFFFF"/>
<rect x="0" y="608" width="680" height="60" fill="#F5F8FB"/>
<path d="M 0 608 Q 90 600 180 606 Q 270 612 360 604 Q 450 600 540 608 Q 600 612 680 605" stroke="#C9D2DA" stroke-width="1" fill="none"/>
<circle cx="60" cy="90" r="1.6" fill="#FFFFFF" fill-opacity="0.85"/>
<circle cx="107" cy="143" r="1.1" fill="#FFFFFF" fill-opacity="0.85"/>
<circle cx="154" cy="196" r="1.1" fill="#FFFFFF" fill-opacity="0.85"/>
<circle cx="201" cy="249" r="1.6" fill="#FFFFFF" fill-opacity="0.85"/>
<circle cx="248" cy="302" r="1.1" fill="#FFFFFF" fill-opacity="0.85"/>
<circle cx="295" cy="355" r="1.1" fill="#FFFFFF" fill-opacity="0.85"/>
<circle cx="342" cy="408" r="1.6" fill="#FFFFFF" fill-opacity="0.85"/>
<circle cx="389" cy="461" r="1.1" fill="#FFFFFF" fill-opacity="0.85"/>
<circle cx="436" cy="514" r="1.1" fill="#FFFFFF" fill-opacity="0.85"/>
<circle cx="483" cy="567" r="1.6" fill="#FFFFFF" fill-opacity="0.85"/>
<circle cx="530" cy="140" r="1.1" fill="#FFFFFF" fill-opacity="0.85"/>
<circle cx="577" cy="193" r="1.1" fill="#FFFFFF" fill-opacity="0.85"/>
<circle cx="624" cy="246" r="1.6" fill="#FFFFFF" fill-opacity="0.85"/>
<circle cx="71" cy="299" r="1.1" fill="#FFFFFF" fill-opacity="0.85"/>
<circle cx="118" cy="352" r="1.1" fill="#FFFFFF" fill-opacity="0.85"/>
<circle cx="165" cy="405" r="1.6" fill="#FFFFFF" fill-opacity="0.85"/>
<circle cx="212" cy="458" r="1.1" fill="#FFFFFF" fill-opacity="0.85"/>
<circle cx="259" cy="511" r="1.1" fill="#FFFFFF" fill-opacity="0.85"/>
<circle cx="306" cy="564" r="1.6" fill="#FFFFFF" fill-opacity="0.85"/>
<circle cx="353" cy="137" r="1.1" fill="#FFFFFF" fill-opacity="0.85"/>
<circle cx="400" cy="190" r="1.1" fill="#FFFFFF" fill-opacity="0.85"/>
<circle cx="447" cy="243" r="1.6" fill="#FFFFFF" fill-opacity="0.85"/>
<circle cx="494" cy="296" r="1.1" fill="#FFFFFF" fill-opacity="0.85"/>
<circle cx="541" cy="349" r="1.1" fill="#FFFFFF" fill-opacity="0.85"/>
<circle cx="588" cy="402" r="1.6" fill="#FFFFFF" fill-opacity="0.85"/>
<circle cx="635" cy="455" r="1.1" fill="#FFFFFF" fill-opacity="0.85"/>
<polygon points="175,90 185,90 189,610 171,610" fill="#A07C50" stroke="#5C4426" stroke-width="1"/>
<polygon points="171,610 189,610 191,710 169,710" fill="#A07C50" fill-opacity="0.45" stroke="#5C4426" stroke-width="0.7" stroke-dasharray="3 2"/>
<rect x="120" y="120" width="120" height="8" fill="#6B4E2A" stroke="#3C2810" stroke-width="0.6"/>
<line x1="180" y1="155" x2="138.0" y2="128" stroke="#3C2810" stroke-width="0.8"/>
<line x1="180" y1="155" x2="222.0" y2="128" stroke="#3C2810" stroke-width="0.8"/>
<ellipse cx="135" cy="113" rx="5" ry="3" fill="#D2D2D2" stroke="#3C3C3C" stroke-width="0.5"/>
<ellipse cx="180" cy="113" rx="5" ry="3" fill="#D2D2D2" stroke="#3C3C3C" stroke-width="0.5"/>
<ellipse cx="225" cy="113" rx="5" ry="3" fill="#D2D2D2" stroke="#3C3C3C" stroke-width="0.5"/>
<line x1="0" y1="108" x2="680" y2="108" stroke="#A32D2D" stroke-width="0.5" opacity="0.5"/>
<circle cx="135" cy="108" r="2.5" fill="#A32D2D" stroke="#501313" stroke-width="0.3"/>
<circle cx="180" cy="108" r="2.5" fill="#A32D2D" stroke="#501313" stroke-width="0.3"/>
<circle cx="225" cy="108" r="2.5" fill="#A32D2D" stroke="#501313" stroke-width="0.3"/>
<rect x="130" y="143" width="10" height="18" fill="#888" stroke="#333" stroke-width="0.4"/>
<line x1="185" y1="128" x2="185" y2="133" stroke="#333" stroke-width="0.7"/>
<rect x="181" y="133" width="8" height="14" fill="#bbb" stroke="#333" stroke-width="0.4"/>
<line x1="185" y1="147" x2="185" y2="165" stroke="#333" stroke-width="0.7"/>
<rect x="195" y="192" width="34" height="76" rx="2" fill="#999" stroke="#333" stroke-width="0.6"/>
<rect x="195" y="268" width="34" height="4" fill="#777" stroke="#333" stroke-width="0.4"/>
<ellipse cx="212" cy="189" rx="3.5" ry="2.5" fill="#ddd" stroke="#333" stroke-width="0.4"/>
<line x1="212" y1="187" x2="185" y2="162" stroke="#333" stroke-width="0.5"/>
<ellipse cx="232" cy="216" rx="3" ry="2" fill="#ddd" stroke="#333" stroke-width="0.4"/>
<ellipse cx="232" cy="228" rx="3" ry="2" fill="#ddd" stroke="#333" stroke-width="0.4"/>
<ellipse cx="232" cy="240" rx="3" ry="2" fill="#ddd" stroke="#333" stroke-width="0.4"/>
<line x1="0" y1="178" x2="680" y2="178" stroke="#5F5E5A" stroke-width="0.9"/>
<circle cx="180" cy="178" r="2" fill="#444441"/>
<line x1="189" y1="350" x2="189" y2="610" stroke="#1D9E75" stroke-width="0.8"/>
<rect x="186" y="510" width="6" height="100" fill="#5F5E5A" stroke="#2C2C2A" stroke-width="0.3"/>
<line x1="0" y1="260" x2="680" y2="260" stroke="#0F6E56" stroke-width="1"/>
<circle cx="180" cy="260" r="2.2" fill="#04342C"/>
<line x1="0" y1="285" x2="680" y2="285" stroke="#0F6E56" stroke-width="0.9"/>
<circle cx="180" cy="285" r="2.2" fill="#04342C"/>
<line x1="0" y1="315" x2="680" y2="315" stroke="#0F6E56" stroke-width="1.1"/>
<circle cx="180" cy="315" r="2.2" fill="#04342C"/>
<path d="M 175 240 Q 90 300 30 430" stroke="#185FA5" stroke-width="1.3" fill="none"/>
<path d="M 480 600 Q 472 555 468 510 Q 466 490 472 478" stroke="#5C4426" stroke-width="12" fill="none" stroke-linecap="round"/>
<ellipse cx="480" cy="480" rx="50" ry="35" fill="#639922" fill-opacity="0.92" stroke="#3B6D11" stroke-width="0.4"/>
<ellipse cx="455" cy="510" rx="45" ry="32" fill="#639922" fill-opacity="0.92" stroke="#3B6D11" stroke-width="0.4"/>
<ellipse cx="505" cy="525" rx="42" ry="30" fill="#639922" fill-opacity="0.92" stroke="#3B6D11" stroke-width="0.4"/>
<ellipse cx="440" cy="540" rx="40" ry="28" fill="#639922" fill-opacity="0.92" stroke="#3B6D11" stroke-width="0.4"/>
<ellipse cx="490" cy="555" rx="38" ry="28" fill="#639922" fill-opacity="0.92" stroke="#3B6D11" stroke-width="0.4"/>
<ellipse cx="445" cy="570" rx="36" ry="26" fill="#639922" fill-opacity="0.92" stroke="#3B6D11" stroke-width="0.4"/>
<path d="M 148 118 L 151 114 L 209 114 L 212 118 Z" fill="#FFFFFF" stroke="#C9D2DA" stroke-width="0.5"/>
<rect x="192" y="430" width="22" height="22" fill="#FFFFFF" stroke="#C9D2DA" stroke-width="0.6"/>
<path d="M 190 430 Q 203 425 216 430" fill="#FFFFFF" stroke="#C9D2DA" stroke-width="0.5"/>
<circle cx="204" cy="440" r="20" fill="#5F5E5A" fill-opacity="0.15"/>
<circle cx="204" cy="440" r="16" fill="none" stroke="#5F5E5A" stroke-width="2.2" opacity="0.85"/>
<circle cx="204" cy="440" r="12" fill="none" stroke="#5F5E5A" stroke-width="1" opacity="0.55"/>
<rect x="420" y="75" width="240" height="82" rx="6" fill="#F1EFE8" stroke="#5F5E5A" stroke-width="1.4"/>
<text x="430" y="93" font-family="Helvetica, Arial, sans-serif" font-size="13" font-weight="600" fill="#2C2C2A">Snow buildup obscuring pole ID</text>
<text x="430" y="108" font-family="Helvetica, Arial, sans-serif" font-size="11" fill="#2C2C2A">Inspection access reduced</text>
<text x="430" y="123" font-family="Helvetica, Arial, sans-serif" font-size="11" fill="#2C2C2A">Cosmetic, address after thaw</text>
<text x="430" y="138" font-family="Helvetica, Arial, sans-serif" font-size="11" fill="#2C2C2A">Document for spring inspection</text>
<rect x="242" y="94" width="118.00000000000001" height="15" fill="#FFFFFF" fill-opacity="0.78" rx="2"/>
<text x="245" y="105" font-family="Helvetica, Arial, sans-serif" font-size="10" fill="#3D3D3A">primary 12.47/7.2 kV</text>
<rect x="242" y="164" width="85.0" height="15" fill="#FFFFFF" fill-opacity="0.78" rx="2"/>
<text x="245" y="175" font-family="Helvetica, Arial, sans-serif" font-size="10" fill="#3D3D3A">system neutral</text>
<rect x="242" y="246" width="30.0" height="15" fill="#FFFFFF" fill-opacity="0.78" rx="2"/>
<text x="245" y="257" font-family="Helvetica, Arial, sans-serif" font-size="10" fill="#3D3D3A">CATV</text>
<rect x="242" y="271" width="35.5" height="15" fill="#FFFFFF" fill-opacity="0.78" rx="2"/>
<text x="245" y="282" font-family="Helvetica, Arial, sans-serif" font-size="10" fill="#3D3D3A">fiber</text>
<rect x="242" y="301" width="35.5" height="15" fill="#FFFFFF" fill-opacity="0.78" rx="2"/>
<text x="245" y="312" font-family="Helvetica, Arial, sans-serif" font-size="10" fill="#3D3D3A">telco</text>
<rect x="0" y="660" width="680" height="140" fill="#F1EFE8"/>
<line x1="0" y1="660" x2="680" y2="660" stroke="#73726c" stroke-width="0.6"/>
<text x="24" y="682" font-family="Helvetica, Arial, sans-serif" font-size="13" font-weight="600" fill="#2C2C2A">Regulation citations</text>
<text x="24" y="700" font-family="Helvetica, Arial, sans-serif" font-size="11" fill="#444441">NESC Rule 217.B: pole identification visibility</text>
<text x="24" y="716" font-family="Helvetica, Arial, sans-serif" font-size="11" fill="#444441">MPSC R 460.3504: inspection access</text>
<text x="24" y="732" font-family="Helvetica, Arial, sans-serif" font-size="11" fill="#444441">Utility O and M: tag maintenance</text>
<text x="24" y="748" font-family="Helvetica, Arial, sans-serif" font-size="11" fill="#444441">ANSI O5.1 pole marking standards</text>
<text x="24" y="764" font-family="Helvetica, Arial, sans-serif" font-size="11" fill="#444441">Michigan PSC seasonal inspection guidance</text>
<rect x="470" y="668" width="200" height="100" rx="4" fill="#F1EFE8" stroke="#5F5E5A" stroke-width="0.6"/>
<text x="478" y="684" font-family="Helvetica, Arial, sans-serif" font-size="11" font-weight="600" fill="#2C2C2A">Annotation metadata</text>
<text x="478" y="700" font-family="Helvetica, Arial, sans-serif" font-size="10" fill="#2C2C2A">pole_type: ju40c4</text>
<text x="478" y="713" font-family="Helvetica, Arial, sans-serif" font-size="10" fill="#2C2C2A">scene_type: weather_violation</text>
<text x="478" y="726" font-family="Helvetica, Arial, sans-serif" font-size="10" fill="#2C2C2A">weather_condition: snow_accumulation</text>
<text x="478" y="739" font-family="Helvetica, Arial, sans-serif" font-size="10" fill="#2C2C2A">framing: weather_induced_violation</text>
<text x="478" y="752" font-family="Helvetica, Arial, sans-serif" font-size="10" fill="#2C2C2A">severity: de_minimis</text>
</svg>