<svg xmlns="http://www.w3.org/2000/svg" viewBox="0 0 680 800" width="680" height="800">
<title>Service pole compliant in snowfall</title>
<desc>Pole compliance training scene. Severity: COMPLIANT BASELINE. Hazard: snow on service pole.</desc>
<rect x="0" y="0" width="680" height="60" fill="#3B6D11"/>
<text x="24" y="38" font-family="Helvetica, Arial, sans-serif" font-size="20" font-weight="600" fill="#FFFFFF">COMPLIANT BASELINE</text>
<text x="660" y="22" font-family="Helvetica, Arial, sans-serif" font-size="10" fill="#EAF3DE" text-anchor="end">Reference scene, no violation</text>
<text x="660" y="37" font-family="Helvetica, Arial, sans-serif" font-size="10" fill="#EAF3DE" text-anchor="end">Hazard: snow on service pole</text>
<text x="660" y="52" font-family="Helvetica, Arial, sans-serif" font-size="10" fill="#EAF3DE" text-anchor="end">Scene: serv30c6_w_snow_compliant</text>
<rect x="0" y="60" width="680" height="550" fill="#EAF1F7"/>
<rect x="0" y="610" width="680" height="50" fill="#D9C8A8"/>
<line x1="0" y1="610" x2="680" y2="610" stroke="#7A5C2A" stroke-width="1"/>
<path d="M 20 612 L 23 606 L 26 612" stroke="#3B6D11" stroke-width="0.7" fill="none"/>
<path d="M 48 612 L 51 606 L 54 612" stroke="#3B6D11" stroke-width="0.7" fill="none"/>
<path d="M 76 612 L 79 606 L 82 612" stroke="#3B6D11" stroke-width="0.7" fill="none"/>
<path d="M 104 612 L 107 606 L 110 612" stroke="#3B6D11" stroke-width="0.7" fill="none"/>
<path d="M 132 612 L 135 606 L 138 612" stroke="#3B6D11" stroke-width="0.7" fill="none"/>
<path d="M 160 612 L 163 606 L 166 612" stroke="#3B6D11" stroke-width="0.7" fill="none"/>
<path d="M 188 612 L 191 606 L 194 612" stroke="#3B6D11" stroke-width="0.7" fill="none"/>
<path d="M 216 612 L 219 606 L 222 612" stroke="#3B6D11" stroke-width="0.7" fill="none"/>
<path d="M 244 612 L 247 606 L 250 612" stroke="#3B6D11" stroke-width="0.7" fill="none"/>
<path d="M 272 612 L 275 606 L 278 612" stroke="#3B6D11" stroke-width="0.7" fill="none"/>
<path d="M 300 612 L 303 606 L 306 612" stroke="#3B6D11" stroke-width="0.7" fill="none"/>
<path d="M 328 612 L 331 606 L 334 612" stroke="#3B6D11" stroke-width="0.7" fill="none"/>
<path d="M 356 612 L 359 606 L 362 612" stroke="#3B6D11" stroke-width="0.7" fill="none"/>
<path d="M 384 612 L 387 606 L 390 612" stroke="#3B6D11" stroke-width="0.7" fill="none"/>
<path d="M 412 612 L 415 606 L 418 612" stroke="#3B6D11" stroke-width="0.7" fill="none"/>
<path d="M 440 612 L 443 606 L 446 612" stroke="#3B6D11" stroke-width="0.7" fill="none"/>
<path d="M 468 612 L 471 606 L 474 612" stroke="#3B6D11" stroke-width="0.7" fill="none"/>
<path d="M 496 612 L 499 606 L 502 612" stroke="#3B6D11" stroke-width="0.7" fill="none"/>
<path d="M 524 612 L 527 606 L 530 612" stroke="#3B6D11" stroke-width="0.7" fill="none"/>
<path d="M 552 612 L 555 606 L 558 612" stroke="#3B6D11" stroke-width="0.7" fill="none"/>
<path d="M 580 612 L 583 606 L 586 612" stroke="#3B6D11" stroke-width="0.7" fill="none"/>
<path d="M 608 612 L 611 606 L 614 612" stroke="#3B6D11" stroke-width="0.7" fill="none"/>
<path d="M 636 612 L 639 606 L 642 612" stroke="#3B6D11" stroke-width="0.7" fill="none"/>
<path d="M 664 612 L 667 606 L 670 612" stroke="#3B6D11" stroke-width="0.7" fill="none"/>
<rect x="0" y="475" width="58" height="55" fill="#C0AC85" stroke="#5C4426" stroke-width="0.6"/>
<polygon points="0,475 29,448 58,475" fill="#7A5C2A" stroke="#5C4426" stroke-width="0.6"/>
<rect x="20" y="495" width="12" height="20" fill="#5C4426"/>
<rect x="40" y="495" width="11" height="11" fill="#A8C8E0"/>
<rect x="0" y="60" width="680" height="550" fill="#D0D6DC" fill-opacity="0.6"/>
<polygon points="0,475 29,448 58,475" fill="#F5F8FB" stroke="#7A5C2A" stroke-width="0.4"/>
<polygon points="0,475 58,475 50,470 8,470" fill="#FFFFFF"/>
<rect x="0" y="608" width="680" height="60" fill="#F5F8FB"/>
<path d="M 0 608 Q 90 600 180 606 Q 270 612 360 604 Q 450 600 540 608 Q 600 612 680 605" stroke="#C9D2DA" stroke-width="1" fill="none"/>
<circle cx="60" cy="90" r="1.6" fill="#FFFFFF" fill-opacity="0.85"/>
<circle cx="107" cy="143" r="1.1" fill="#FFFFFF" fill-opacity="0.85"/>
<circle cx="154" cy="196" r="1.1" fill="#FFFFFF" fill-opacity="0.85"/>
<circle cx="201" cy="249" r="1.6" fill="#FFFFFF" fill-opacity="0.85"/>
<circle cx="248" cy="302" r="1.1" fill="#FFFFFF" fill-opacity="0.85"/>
<circle cx="295" cy="355" r="1.1" fill="#FFFFFF" fill-opacity="0.85"/>
<circle cx="342" cy="408" r="1.6" fill="#FFFFFF" fill-opacity="0.85"/>
<circle cx="389" cy="461" r="1.1" fill="#FFFFFF" fill-opacity="0.85"/>
<circle cx="436" cy="514" r="1.1" fill="#FFFFFF" fill-opacity="0.85"/>
<circle cx="483" cy="567" r="1.6" fill="#FFFFFF" fill-opacity="0.85"/>
<circle cx="530" cy="140" r="1.1" fill="#FFFFFF" fill-opacity="0.85"/>
<circle cx="577" cy="193" r="1.1" fill="#FFFFFF" fill-opacity="0.85"/>
<circle cx="624" cy="246" r="1.6" fill="#FFFFFF" fill-opacity="0.85"/>
<circle cx="71" cy="299" r="1.1" fill="#FFFFFF" fill-opacity="0.85"/>
<circle cx="118" cy="352" r="1.1" fill="#FFFFFF" fill-opacity="0.85"/>
<circle cx="165" cy="405" r="1.6" fill="#FFFFFF" fill-opacity="0.85"/>
<circle cx="212" cy="458" r="1.1" fill="#FFFFFF" fill-opacity="0.85"/>
<circle cx="259" cy="511" r="1.1" fill="#FFFFFF" fill-opacity="0.85"/>
<circle cx="306" cy="564" r="1.6" fill="#FFFFFF" fill-opacity="0.85"/>
<circle cx="353" cy="137" r="1.1" fill="#FFFFFF" fill-opacity="0.85"/>
<circle cx="400" cy="190" r="1.1" fill="#FFFFFF" fill-opacity="0.85"/>
<circle cx="447" cy="243" r="1.6" fill="#FFFFFF" fill-opacity="0.85"/>
<circle cx="494" cy="296" r="1.1" fill="#FFFFFF" fill-opacity="0.85"/>
<circle cx="541" cy="349" r="1.1" fill="#FFFFFF" fill-opacity="0.85"/>
<circle cx="588" cy="402" r="1.6" fill="#FFFFFF" fill-opacity="0.85"/>
<circle cx="635" cy="455" r="1.1" fill="#FFFFFF" fill-opacity="0.85"/>
<polygon points="177,220 183,220 187,610 173,610" fill="#A07C50" stroke="#5C4426" stroke-width="1"/>
<polygon points="173,610 187,610 189,710 171,710" fill="#A07C50" fill-opacity="0.45" stroke="#5C4426" stroke-width="0.7" stroke-dasharray="3 2"/>
<line x1="0" y1="225" x2="680" y2="225" stroke="#185FA5" stroke-width="1.4"/>
<line x1="0" y1="232" x2="680" y2="232" stroke="#5F5E5A" stroke-width="0.9"/>
<circle cx="180" cy="240" r="2.2" fill="#0C447C"/>
<rect x="190" y="380" width="32" height="50" rx="2" fill="#C8C8C8" stroke="#444" stroke-width="0.7"/>
<circle cx="206" cy="398" r="9" fill="#FFF" stroke="#444" stroke-width="0.6"/>
<line x1="206" y1="395" x2="210" y2="401" stroke="#A32D2D" stroke-width="0.7"/>
<rect x="188" y="368" width="36" height="14" rx="2" fill="#888" stroke="#333" stroke-width="0.5"/>
<path d="M 198 368 C 195 255 210 250 200 243" stroke="#5F5E5A" stroke-width="2" fill="none"/>
<path d="M 175 240 Q 90 300 30 430" stroke="#185FA5" stroke-width="1.3" fill="none"/>
<line x1="189" y1="350" x2="189" y2="610" stroke="#1D9E75" stroke-width="0.8"/>
<rect x="186" y="510" width="6" height="100" fill="#5F5E5A" stroke="#2C2C2A" stroke-width="0.3"/>
<path d="M 173 215 Q 180 211 187 215" fill="#FFFFFF" stroke="#C9D2DA" stroke-width="0.5"/>
<rect x="420" y="75" width="240" height="82" rx="6" fill="#EAF3DE" stroke="#3B6D11" stroke-width="1.4"/>
<text x="430" y="93" font-family="Helvetica, Arial, sans-serif" font-size="13" font-weight="600" fill="#173404">Service pole in snowfall</text>
<text x="430" y="108" font-family="Helvetica, Arial, sans-serif" font-size="11" fill="#173404">Drop and meter clear</text>
<text x="430" y="123" font-family="Helvetica, Arial, sans-serif" font-size="11" fill="#173404">Routine winter weather</text>
<text x="430" y="138" font-family="Helvetica, Arial, sans-serif" font-size="11" fill="#173404">Compliant</text>
<rect x="242" y="211" width="156.5" height="15" fill="#FFFFFF" fill-opacity="0.78" rx="2"/>
<text x="245" y="222" font-family="Helvetica, Arial, sans-serif" font-size="10" fill="#3D3D3A">overhead secondary 120/240V</text>
<rect x="242" y="219" width="85.0" height="15" fill="#FFFFFF" fill-opacity="0.78" rx="2"/>
<text x="245" y="230" font-family="Helvetica, Arial, sans-serif" font-size="10" fill="#3D3D3A">system neutral</text>
<rect x="277" y="351" width="74.0" height="15" fill="#FFFFFF" fill-opacity="0.78" rx="2"/>
<text x="280" y="362" font-family="Helvetica, Arial, sans-serif" font-size="10" fill="#3D3D3A">weather head</text>
<rect x="277" y="389" width="85.0" height="15" fill="#FFFFFF" fill-opacity="0.78" rx="2"/>
<text x="280" y="400" font-family="Helvetica, Arial, sans-serif" font-size="10" fill="#3D3D3A">kWh meter base</text>
<rect x="0" y="660" width="680" height="140" fill="#F1EFE8"/>
<line x1="0" y1="660" x2="680" y2="660" stroke="#73726c" stroke-width="0.6"/>
<text x="24" y="682" font-family="Helvetica, Arial, sans-serif" font-size="13" font-weight="600" fill="#2C2C2A">Regulation citations</text>
<text x="24" y="700" font-family="Helvetica, Arial, sans-serif" font-size="11" fill="#444441">NESC Rule 230.C: service drop clearance</text>
<text x="24" y="716" font-family="Helvetica, Arial, sans-serif" font-size="11" fill="#444441">NESC Rule 250.A: snow loading</text>
<text x="24" y="732" font-family="Helvetica, Arial, sans-serif" font-size="11" fill="#444441">NEC Article 230: service equipment</text>
<text x="24" y="748" font-family="Helvetica, Arial, sans-serif" font-size="11" fill="#444441">MPSC R 460.601: service maintenance</text>
<text x="24" y="764" font-family="Helvetica, Arial, sans-serif" font-size="11" fill="#444441">Utility O and M: winter service inspection</text>
<rect x="470" y="668" width="200" height="100" rx="4" fill="#EAF3DE" stroke="#3B6D11" stroke-width="0.6"/>
<text x="478" y="684" font-family="Helvetica, Arial, sans-serif" font-size="11" font-weight="600" fill="#173404">Annotation metadata</text>
<text x="478" y="700" font-family="Helvetica, Arial, sans-serif" font-size="10" fill="#173404">pole_type: serv30c6</text>
<text x="478" y="713" font-family="Helvetica, Arial, sans-serif" font-size="10" fill="#173404">scene_type: weather_context</text>
<text x="478" y="726" font-family="Helvetica, Arial, sans-serif" font-size="10" fill="#173404">weather_condition: snow_accumulation</text>
<text x="478" y="739" font-family="Helvetica, Arial, sans-serif" font-size="10" fill="#173404">framing: compliant_with_weather</text>
</svg>