<svg xmlns="http://www.w3.org/2000/svg" viewBox="0 0 680 800" width="680" height="800">
<title>Storm wind snapped down guy strand</title>
<desc>Pole compliance training scene. Severity: SERIOUS. Hazard: storm snapped guy.</desc>
<rect x="0" y="0" width="680" height="60" fill="#854F0B"/>
<text x="24" y="38" font-family="Helvetica, Arial, sans-serif" font-size="20" font-weight="600" fill="#FFFFFF">SERIOUS</text>
<text x="660" y="22" font-family="Helvetica, Arial, sans-serif" font-size="10" fill="#FAEEDA" text-anchor="end">OSHA 29 CFR 1903.14(b)</text>
<text x="660" y="37" font-family="Helvetica, Arial, sans-serif" font-size="10" fill="#FAEEDA" text-anchor="end">Hazard: storm snapped guy</text>
<text x="660" y="52" font-family="Helvetica, Arial, sans-serif" font-size="10" fill="#FAEEDA" text-anchor="end">Scene: sp35c5_w_storm_guy_broken</text>
<rect x="0" y="60" width="680" height="550" fill="#EAF1F7"/>
<rect x="0" y="610" width="680" height="50" fill="#D9C8A8"/>
<line x1="0" y1="610" x2="680" y2="610" stroke="#7A5C2A" stroke-width="1"/>
<path d="M 20 612 L 23 606 L 26 612" stroke="#3B6D11" stroke-width="0.7" fill="none"/>
<path d="M 48 612 L 51 606 L 54 612" stroke="#3B6D11" stroke-width="0.7" fill="none"/>
<path d="M 76 612 L 79 606 L 82 612" stroke="#3B6D11" stroke-width="0.7" fill="none"/>
<path d="M 104 612 L 107 606 L 110 612" stroke="#3B6D11" stroke-width="0.7" fill="none"/>
<path d="M 132 612 L 135 606 L 138 612" stroke="#3B6D11" stroke-width="0.7" fill="none"/>
<path d="M 160 612 L 163 606 L 166 612" stroke="#3B6D11" stroke-width="0.7" fill="none"/>
<path d="M 188 612 L 191 606 L 194 612" stroke="#3B6D11" stroke-width="0.7" fill="none"/>
<path d="M 216 612 L 219 606 L 222 612" stroke="#3B6D11" stroke-width="0.7" fill="none"/>
<path d="M 244 612 L 247 606 L 250 612" stroke="#3B6D11" stroke-width="0.7" fill="none"/>
<path d="M 272 612 L 275 606 L 278 612" stroke="#3B6D11" stroke-width="0.7" fill="none"/>
<path d="M 300 612 L 303 606 L 306 612" stroke="#3B6D11" stroke-width="0.7" fill="none"/>
<path d="M 328 612 L 331 606 L 334 612" stroke="#3B6D11" stroke-width="0.7" fill="none"/>
<path d="M 356 612 L 359 606 L 362 612" stroke="#3B6D11" stroke-width="0.7" fill="none"/>
<path d="M 384 612 L 387 606 L 390 612" stroke="#3B6D11" stroke-width="0.7" fill="none"/>
<path d="M 412 612 L 415 606 L 418 612" stroke="#3B6D11" stroke-width="0.7" fill="none"/>
<path d="M 440 612 L 443 606 L 446 612" stroke="#3B6D11" stroke-width="0.7" fill="none"/>
<path d="M 468 612 L 471 606 L 474 612" stroke="#3B6D11" stroke-width="0.7" fill="none"/>
<path d="M 496 612 L 499 606 L 502 612" stroke="#3B6D11" stroke-width="0.7" fill="none"/>
<path d="M 524 612 L 527 606 L 530 612" stroke="#3B6D11" stroke-width="0.7" fill="none"/>
<path d="M 552 612 L 555 606 L 558 612" stroke="#3B6D11" stroke-width="0.7" fill="none"/>
<path d="M 580 612 L 583 606 L 586 612" stroke="#3B6D11" stroke-width="0.7" fill="none"/>
<path d="M 608 612 L 611 606 L 614 612" stroke="#3B6D11" stroke-width="0.7" fill="none"/>
<path d="M 636 612 L 639 606 L 642 612" stroke="#3B6D11" stroke-width="0.7" fill="none"/>
<path d="M 664 612 L 667 606 L 670 612" stroke="#3B6D11" stroke-width="0.7" fill="none"/>
<rect x="0" y="475" width="58" height="55" fill="#C0AC85" stroke="#5C4426" stroke-width="0.6"/>
<polygon points="0,475 29,448 58,475" fill="#7A5C2A" stroke="#5C4426" stroke-width="0.6"/>
<rect x="20" y="495" width="12" height="20" fill="#5C4426"/>
<rect x="40" y="495" width="11" height="11" fill="#A8C8E0"/>
<rect x="0" y="60" width="680" height="550" fill="#A4ADB8" fill-opacity="0.35"/>
<ellipse cx="160" cy="110" rx="140" ry="22" fill="#7A8090" fill-opacity="0.3"/>
<ellipse cx="520" cy="135" rx="160" ry="26" fill="#7A8090" fill-opacity="0.32"/>
<rect x="0" y="610" width="680" height="50" fill="#A89870" fill-opacity="0.3"/>
<polygon points="176,155 184,155 188,610 172,610" fill="#A07C50" stroke="#5C4426" stroke-width="1"/>
<polygon points="172,610 188,610 190,710 170,710" fill="#A07C50" fill-opacity="0.45" stroke="#5C4426" stroke-width="0.7" stroke-dasharray="3 2"/>
<rect x="177" y="150" width="6" height="5" fill="#6B4E2A" stroke="#3C2810" stroke-width="0.4"/>
<ellipse cx="180" cy="146" rx="5" ry="3" fill="#D2D2D2" stroke="#3C3C3C" stroke-width="0.5"/>
<line x1="0" y1="168" x2="680" y2="168" stroke="#A32D2D" stroke-width="0.5" opacity="0.5"/>
<circle cx="180" cy="168" r="2.5" fill="#A32D2D" stroke="#501313" stroke-width="0.3"/>
<line x1="180" y1="171" x2="175" y2="190" stroke="#333" stroke-width="0.7"/>
<line x1="175" y1="190" x2="175" y2="195" stroke="#333" stroke-width="0.7"/>
<rect x="171" y="195" width="8" height="14" fill="#bbb" stroke="#333" stroke-width="0.4"/>
<line x1="175" y1="209" x2="175" y2="215" stroke="#333" stroke-width="0.7"/>
<rect x="153" y="195" width="10" height="22" fill="#888" stroke="#333" stroke-width="0.4"/>
<line x1="158" y1="195" x2="175" y2="190" stroke="#333" stroke-width="0.5"/>
<rect x="192" y="230" width="28" height="60" rx="2" fill="#999" stroke="#333" stroke-width="0.6"/>
<rect x="192" y="290" width="28" height="4" fill="#777" stroke="#333" stroke-width="0.4"/>
<ellipse cx="209" cy="227" rx="3.5" ry="2.5" fill="#ddd" stroke="#333" stroke-width="0.4"/>
<line x1="209" y1="225" x2="182" y2="200" stroke="#333" stroke-width="0.5"/>
<ellipse cx="223" cy="254" rx="3" ry="2" fill="#ddd" stroke="#333" stroke-width="0.4"/>
<ellipse cx="223" cy="266" rx="3" ry="2" fill="#ddd" stroke="#333" stroke-width="0.4"/>
<ellipse cx="223" cy="278" rx="3" ry="2" fill="#ddd" stroke="#333" stroke-width="0.4"/>
<line x1="0" y1="210" x2="680" y2="210" stroke="#5F5E5A" stroke-width="0.9"/>
<circle cx="180" cy="210" r="2" fill="#444441"/>
<line x1="189" y1="320" x2="189" y2="610" stroke="#1D9E75" stroke-width="0.8"/>
<rect x="186" y="510" width="6" height="100" fill="#5F5E5A" stroke="#2C2C2A" stroke-width="0.3"/>
<line x1="189" y1="170" x2="210" y2="350" stroke="#3C3C3C" stroke-width="1.4"/>
<path d="M 210 350 L 215 360 L 205 370 L 220 380" stroke="#A32D2D" stroke-width="1" fill="none"/>
<line x1="280" y1="610" x2="290" y2="540" stroke="#3C3C3C" stroke-width="1.4"/>
<path d="M 265 605 L 275 600 L 288 603" stroke="#5C4426" stroke-width="2.5" fill="none"/>
<path d="M 270 606 L 285 602 L 292 606" stroke="#7A5C2A" stroke-width="2" fill="none"/>
<path d="M 277 601 L 290 604" stroke="#3C2810" stroke-width="1.5" fill="none"/>
<circle cx="213" cy="365" r="22" fill="#854F0B" fill-opacity="0.15"/>
<circle cx="213" cy="365" r="18" fill="none" stroke="#854F0B" stroke-width="2.2" opacity="0.85"/>
<circle cx="213" cy="365" r="14" fill="none" stroke="#854F0B" stroke-width="1" opacity="0.55"/>
<rect x="420" y="75" width="240" height="82" rx="6" fill="#FAEEDA" stroke="#854F0B" stroke-width="1.4"/>
<text x="430" y="93" font-family="Helvetica, Arial, sans-serif" font-size="13" font-weight="600" fill="#412402">Down guy strand snapped in storm</text>
<text x="430" y="108" font-family="Helvetica, Arial, sans-serif" font-size="11" fill="#412402">Pole lateral support reduced</text>
<text x="430" y="123" font-family="Helvetica, Arial, sans-serif" font-size="11" fill="#412402">Risk of additional pole lean</text>
<text x="430" y="138" font-family="Helvetica, Arial, sans-serif" font-size="11" fill="#412402">Replace guy and re-tension</text>
<rect x="242" y="154" width="140.0" height="15" fill="#FFFFFF" fill-opacity="0.78" rx="2"/>
<text x="245" y="165" font-family="Helvetica, Arial, sans-serif" font-size="10" fill="#3D3D3A">primary 7.2 kV (1-phase)</text>
<rect x="242" y="196" width="85.0" height="15" fill="#FFFFFF" fill-opacity="0.78" rx="2"/>
<text x="245" y="207" font-family="Helvetica, Arial, sans-serif" font-size="10" fill="#3D3D3A">system neutral</text>
<rect x="242" y="276" width="107.00000000000001" height="15" fill="#FFFFFF" fill-opacity="0.78" rx="2"/>
<text x="245" y="287" font-family="Helvetica, Arial, sans-serif" font-size="10" fill="#3D3D3A">secondary 120/240V</text>
<rect x="0" y="660" width="680" height="140" fill="#F1EFE8"/>
<line x1="0" y1="660" x2="680" y2="660" stroke="#73726c" stroke-width="0.6"/>
<text x="24" y="682" font-family="Helvetica, Arial, sans-serif" font-size="13" font-weight="600" fill="#2C2C2A">Regulation citations</text>
<text x="24" y="700" font-family="Helvetica, Arial, sans-serif" font-size="11" fill="#444441">NESC Rule 261.B: guy integrity</text>
<text x="24" y="716" font-family="Helvetica, Arial, sans-serif" font-size="11" fill="#444441">ASTM A475: guy strand standards</text>
<text x="24" y="732" font-family="Helvetica, Arial, sans-serif" font-size="11" fill="#444441">NESC Rule 250: wind loading on guys</text>
<text x="24" y="748" font-family="Helvetica, Arial, sans-serif" font-size="11" fill="#444441">MPSC R 460.3504: corrective action</text>
<text x="24" y="764" font-family="Helvetica, Arial, sans-serif" font-size="11" fill="#444441">Utility O and M: post-storm guy inspection</text>
<rect x="470" y="668" width="200" height="100" rx="4" fill="#FAEEDA" stroke="#854F0B" stroke-width="0.6"/>
<text x="478" y="684" font-family="Helvetica, Arial, sans-serif" font-size="11" font-weight="600" fill="#412402">Annotation metadata</text>
<text x="478" y="700" font-family="Helvetica, Arial, sans-serif" font-size="10" fill="#412402">pole_type: sp35c5</text>
<text x="478" y="713" font-family="Helvetica, Arial, sans-serif" font-size="10" fill="#412402">scene_type: weather_damage</text>
<text x="478" y="726" font-family="Helvetica, Arial, sans-serif" font-size="10" fill="#412402">weather_condition: post_storm</text>
<text x="478" y="739" font-family="Helvetica, Arial, sans-serif" font-size="10" fill="#412402">framing: damage_from_weather</text>
<text x="478" y="752" font-family="Helvetica, Arial, sans-serif" font-size="10" fill="#412402">severity: serious</text>
</svg>