<svg xmlns="http://www.w3.org/2000/svg" viewBox="0 0 680 800" width="680" height="800">
<title>Vegetation contact, cracked insulator, and staining</title>
<desc>Pole compliance training scene. Severity: MULTI-DEFECT. Hazard: compound urgent.</desc>
<rect x="0" y="0" width="680" height="60" fill="#6B2D8C"/>
<text x="24" y="38" font-family="Helvetica, Arial, sans-serif" font-size="20" font-weight="600" fill="#FFFFFF">MULTI-DEFECT</text>
<text x="660" y="22" font-family="Helvetica, Arial, sans-serif" font-size="10" fill="#EFE6F5" text-anchor="end">Multiple findings, see metadata</text>
<text x="660" y="37" font-family="Helvetica, Arial, sans-serif" font-size="10" fill="#EFE6F5" text-anchor="end">Hazard: compound urgent</text>
<text x="660" y="52" font-family="Helvetica, Arial, sans-serif" font-size="10" fill="#EFE6F5" text-anchor="end">Scene: sp35c5_md5_compoundurgent</text>
<rect x="0" y="60" width="680" height="550" fill="#EAF1F7"/>
<rect x="0" y="610" width="680" height="50" fill="#D9C8A8"/>
<line x1="0" y1="610" x2="680" y2="610" stroke="#7A5C2A" stroke-width="1"/>
<path d="M 20 612 L 23 606 L 26 612" stroke="#3B6D11" stroke-width="0.7" fill="none"/>
<path d="M 48 612 L 51 606 L 54 612" stroke="#3B6D11" stroke-width="0.7" fill="none"/>
<path d="M 76 612 L 79 606 L 82 612" stroke="#3B6D11" stroke-width="0.7" fill="none"/>
<path d="M 104 612 L 107 606 L 110 612" stroke="#3B6D11" stroke-width="0.7" fill="none"/>
<path d="M 132 612 L 135 606 L 138 612" stroke="#3B6D11" stroke-width="0.7" fill="none"/>
<path d="M 160 612 L 163 606 L 166 612" stroke="#3B6D11" stroke-width="0.7" fill="none"/>
<path d="M 188 612 L 191 606 L 194 612" stroke="#3B6D11" stroke-width="0.7" fill="none"/>
<path d="M 216 612 L 219 606 L 222 612" stroke="#3B6D11" stroke-width="0.7" fill="none"/>
<path d="M 244 612 L 247 606 L 250 612" stroke="#3B6D11" stroke-width="0.7" fill="none"/>
<path d="M 272 612 L 275 606 L 278 612" stroke="#3B6D11" stroke-width="0.7" fill="none"/>
<path d="M 300 612 L 303 606 L 306 612" stroke="#3B6D11" stroke-width="0.7" fill="none"/>
<path d="M 328 612 L 331 606 L 334 612" stroke="#3B6D11" stroke-width="0.7" fill="none"/>
<path d="M 356 612 L 359 606 L 362 612" stroke="#3B6D11" stroke-width="0.7" fill="none"/>
<path d="M 384 612 L 387 606 L 390 612" stroke="#3B6D11" stroke-width="0.7" fill="none"/>
<path d="M 412 612 L 415 606 L 418 612" stroke="#3B6D11" stroke-width="0.7" fill="none"/>
<path d="M 440 612 L 443 606 L 446 612" stroke="#3B6D11" stroke-width="0.7" fill="none"/>
<path d="M 468 612 L 471 606 L 474 612" stroke="#3B6D11" stroke-width="0.7" fill="none"/>
<path d="M 496 612 L 499 606 L 502 612" stroke="#3B6D11" stroke-width="0.7" fill="none"/>
<path d="M 524 612 L 527 606 L 530 612" stroke="#3B6D11" stroke-width="0.7" fill="none"/>
<path d="M 552 612 L 555 606 L 558 612" stroke="#3B6D11" stroke-width="0.7" fill="none"/>
<path d="M 580 612 L 583 606 L 586 612" stroke="#3B6D11" stroke-width="0.7" fill="none"/>
<path d="M 608 612 L 611 606 L 614 612" stroke="#3B6D11" stroke-width="0.7" fill="none"/>
<path d="M 636 612 L 639 606 L 642 612" stroke="#3B6D11" stroke-width="0.7" fill="none"/>
<path d="M 664 612 L 667 606 L 670 612" stroke="#3B6D11" stroke-width="0.7" fill="none"/>
<rect x="0" y="475" width="58" height="55" fill="#C0AC85" stroke="#5C4426" stroke-width="0.6"/>
<polygon points="0,475 29,448 58,475" fill="#7A5C2A" stroke="#5C4426" stroke-width="0.6"/>
<rect x="20" y="495" width="12" height="20" fill="#5C4426"/>
<rect x="40" y="495" width="11" height="11" fill="#A8C8E0"/>

<polygon points="176,155 184,155 188,610 172,610" fill="#A07C50" stroke="#5C4426" stroke-width="1"/>
<polygon points="172,610 188,610 190,710 170,710" fill="#A07C50" fill-opacity="0.45" stroke="#5C4426" stroke-width="0.7" stroke-dasharray="3 2"/>
<rect x="177" y="150" width="6" height="5" fill="#6B4E2A" stroke="#3C2810" stroke-width="0.4"/>
<ellipse cx="180" cy="146" rx="5" ry="3" fill="#D2D2D2" stroke="#3C3C3C" stroke-width="0.5"/>
<line x1="0" y1="168" x2="680" y2="168" stroke="#A32D2D" stroke-width="0.5" opacity="0.5"/>
<circle cx="180" cy="168" r="2.5" fill="#A32D2D" stroke="#501313" stroke-width="0.3"/>
<line x1="180" y1="171" x2="175" y2="190" stroke="#333" stroke-width="0.7"/>
<line x1="175" y1="190" x2="175" y2="195" stroke="#333" stroke-width="0.7"/>
<rect x="171" y="195" width="8" height="14" fill="#bbb" stroke="#333" stroke-width="0.4"/>
<line x1="175" y1="209" x2="175" y2="215" stroke="#333" stroke-width="0.7"/>
<rect x="153" y="195" width="10" height="22" fill="#888" stroke="#333" stroke-width="0.4"/>
<line x1="158" y1="195" x2="175" y2="190" stroke="#333" stroke-width="0.5"/>
<rect x="192" y="230" width="28" height="60" rx="2" fill="#999" stroke="#333" stroke-width="0.6"/>
<rect x="192" y="290" width="28" height="4" fill="#777" stroke="#333" stroke-width="0.4"/>
<ellipse cx="209" cy="227" rx="3.5" ry="2.5" fill="#ddd" stroke="#333" stroke-width="0.4"/>
<line x1="209" y1="225" x2="182" y2="200" stroke="#333" stroke-width="0.5"/>
<ellipse cx="223" cy="254" rx="3" ry="2" fill="#ddd" stroke="#333" stroke-width="0.4"/>
<ellipse cx="223" cy="266" rx="3" ry="2" fill="#ddd" stroke="#333" stroke-width="0.4"/>
<ellipse cx="223" cy="278" rx="3" ry="2" fill="#ddd" stroke="#333" stroke-width="0.4"/>
<line x1="0" y1="210" x2="680" y2="210" stroke="#5F5E5A" stroke-width="0.9"/>
<circle cx="180" cy="210" r="2" fill="#444441"/>
<line x1="189" y1="320" x2="189" y2="610" stroke="#1D9E75" stroke-width="0.8"/>
<rect x="186" y="510" width="6" height="100" fill="#5F5E5A" stroke="#2C2C2A" stroke-width="0.3"/>
<path d="M 480 600 Q 472 555 468 510 Q 466 490 472 478" stroke="#5C4426" stroke-width="12" fill="none" stroke-linecap="round"/>
<ellipse cx="480" cy="480" rx="50" ry="35" fill="#639922" fill-opacity="0.92" stroke="#3B6D11" stroke-width="0.4"/>
<ellipse cx="455" cy="510" rx="45" ry="32" fill="#639922" fill-opacity="0.92" stroke="#3B6D11" stroke-width="0.4"/>
<ellipse cx="505" cy="525" rx="42" ry="30" fill="#639922" fill-opacity="0.92" stroke="#3B6D11" stroke-width="0.4"/>
<ellipse cx="440" cy="540" rx="40" ry="28" fill="#639922" fill-opacity="0.92" stroke="#3B6D11" stroke-width="0.4"/>
<ellipse cx="490" cy="555" rx="38" ry="28" fill="#639922" fill-opacity="0.92" stroke="#3B6D11" stroke-width="0.4"/>
<ellipse cx="445" cy="570" rx="36" ry="26" fill="#639922" fill-opacity="0.92" stroke="#3B6D11" stroke-width="0.4"/>
<path d="M 490 600 Q 482 555 478 510 Q 472 460 478 420" stroke="#5C4426" stroke-width="13" fill="none" stroke-linecap="round"/>
<path d="M 475 470 Q 455 460 440 450" stroke="#5C4426" stroke-width="5" fill="none" stroke-linecap="round"/>
<path d="M 478 420 Q 460 410 445 408" stroke="#5C4426" stroke-width="4" fill="none" stroke-linecap="round"/>
<path d="M 448 415 Q 380 360 300 280 Q 240 220 154 121 Q 145 116 140 113" stroke="#5C4426" stroke-width="2.8" fill="none" stroke-linecap="round"/>
<ellipse cx="490" cy="550" rx="38" ry="28" fill="#639922" fill-opacity="0.92" stroke="#3B6D11" stroke-width="0.4"/>
<ellipse cx="455" cy="555" rx="34" ry="26" fill="#639922" fill-opacity="0.92" stroke="#3B6D11" stroke-width="0.4"/>
<ellipse cx="525" cy="540" rx="32" ry="25" fill="#639922" fill-opacity="0.92" stroke="#3B6D11" stroke-width="0.4"/>
<ellipse cx="465" cy="510" rx="42" ry="30" fill="#639922" fill-opacity="0.92" stroke="#3B6D11" stroke-width="0.4"/>
<ellipse cx="510" cy="495" rx="38" ry="28" fill="#639922" fill-opacity="0.92" stroke="#3B6D11" stroke-width="0.4"/>
<ellipse cx="445" cy="485" rx="36" ry="28" fill="#639922" fill-opacity="0.92" stroke="#3B6D11" stroke-width="0.4"/>
<ellipse cx="505" cy="460" rx="36" ry="28" fill="#639922" fill-opacity="0.92" stroke="#3B6D11" stroke-width="0.4"/>
<ellipse cx="475" cy="440" rx="38" ry="28" fill="#639922" fill-opacity="0.92" stroke="#3B6D11" stroke-width="0.4"/>
<ellipse cx="510" cy="425" rx="32" ry="25" fill="#639922" fill-opacity="0.92" stroke="#3B6D11" stroke-width="0.4"/>
<ellipse cx="440" cy="435" rx="30" ry="24" fill="#639922" fill-opacity="0.92" stroke="#3B6D11" stroke-width="0.4"/>
<ellipse cx="475" cy="405" rx="30" ry="24" fill="#639922" fill-opacity="0.92" stroke="#3B6D11" stroke-width="0.4"/>
<ellipse cx="445" cy="410" rx="26" ry="22" fill="#639922" fill-opacity="0.92" stroke="#3B6D11" stroke-width="0.4"/>
<ellipse cx="152" cy="117" rx="10" ry="9" fill="#639922" fill-opacity="0.92" stroke="#3B6D11" stroke-width="0.4"/>
<ellipse cx="144" cy="113" rx="7" ry="6" fill="#639922" fill-opacity="0.92" stroke="#3B6D11" stroke-width="0.4"/>
<circle cx="140" cy="113" r="20" fill="#A32D2D" fill-opacity="0.15"/>
<circle cx="140" cy="113" r="16" fill="none" stroke="#A32D2D" stroke-width="2.2" opacity="0.85"/>
<circle cx="140" cy="113" r="12" fill="none" stroke="#A32D2D" stroke-width="1" opacity="0.55"/>
<path d="M 177 113 L 183 117" stroke="#3C3C3C" stroke-width="0.7"/>
<path d="M 179 114 L 184 119" stroke="#3C3C3C" stroke-width="0.6"/>
<circle cx="180" cy="115" r="20" fill="#854F0B" fill-opacity="0.15"/>
<circle cx="180" cy="115" r="16" fill="none" stroke="#854F0B" stroke-width="2.2" opacity="0.85"/>
<circle cx="180" cy="115" r="12" fill="none" stroke="#854F0B" stroke-width="1" opacity="0.55"/>
<path d="M 177 115 L 174 130 L 176 145" stroke="#5F5E5A" stroke-width="1" fill="none" opacity="0.5"/>
<path d="M 183 115 L 186 130 L 184 145" stroke="#5F5E5A" stroke-width="1" fill="none" opacity="0.5"/>
<circle cx="180" cy="130" r="18" fill="#5F5E5A" fill-opacity="0.15"/>
<circle cx="180" cy="130" r="14" fill="none" stroke="#5F5E5A" stroke-width="2.2" opacity="0.85"/>
<circle cx="180" cy="130" r="10" fill="none" stroke="#5F5E5A" stroke-width="1" opacity="0.55"/>
<rect x="420" y="75" width="240" height="67" rx="6" fill="#EFE6F5" stroke="#6B2D8C" stroke-width="1.4"/>
<text x="430" y="93" font-family="Helvetica, Arial, sans-serif" font-size="13" font-weight="600" fill="#3A1A4C">[I] Vegetation contact with primary</text>
<text x="430" y="108" font-family="Helvetica, Arial, sans-serif" font-size="11" fill="#3A1A4C">[S] Cracked pin insulator</text>
<text x="430" y="123" font-family="Helvetica, Arial, sans-serif" font-size="11" fill="#3A1A4C">[D] Insulator weather staining</text>
<rect x="242" y="154" width="140.0" height="15" fill="#FFFFFF" fill-opacity="0.78" rx="2"/>
<text x="245" y="165" font-family="Helvetica, Arial, sans-serif" font-size="10" fill="#3D3D3A">primary 7.2 kV (1-phase)</text>
<rect x="242" y="196" width="85.0" height="15" fill="#FFFFFF" fill-opacity="0.78" rx="2"/>
<text x="245" y="207" font-family="Helvetica, Arial, sans-serif" font-size="10" fill="#3D3D3A">system neutral</text>
<rect x="242" y="276" width="107.00000000000001" height="15" fill="#FFFFFF" fill-opacity="0.78" rx="2"/>
<text x="245" y="287" font-family="Helvetica, Arial, sans-serif" font-size="10" fill="#3D3D3A">secondary 120/240V</text>
<rect x="0" y="660" width="680" height="140" fill="#F1EFE8"/>
<line x1="0" y1="660" x2="680" y2="660" stroke="#73726c" stroke-width="0.6"/>
<text x="24" y="682" font-family="Helvetica, Arial, sans-serif" font-size="13" font-weight="600" fill="#2C2C2A">Regulation citations</text>
<text x="24" y="700" font-family="Helvetica, Arial, sans-serif" font-size="11" fill="#444441">NESC Rule 218.A.1: vegetation must not contact</text>
<text x="24" y="716" font-family="Helvetica, Arial, sans-serif" font-size="11" fill="#444441">NESC Rule 277: insulator integrity</text>
<text x="24" y="732" font-family="Helvetica, Arial, sans-serif" font-size="11" fill="#444441">ANSI C29 porcelain standards</text>
<text x="24" y="748" font-family="Helvetica, Arial, sans-serif" font-size="11" fill="#444441">MPSC R 460.3504: immediate response</text>
<text x="24" y="764" font-family="Helvetica, Arial, sans-serif" font-size="11" fill="#444441">OSHA 29 CFR 1910.269(p): MAD</text>
<rect x="470" y="668" width="200" height="100" rx="4" fill="#EFE6F5" stroke="#6B2D8C" stroke-width="0.6"/>
<text x="478" y="684" font-family="Helvetica, Arial, sans-serif" font-size="11" font-weight="600" fill="#3A1A4C">Annotation metadata</text>
<text x="478" y="700" font-family="Helvetica, Arial, sans-serif" font-size="10" fill="#3A1A4C">pole_type: sp35c5</text>
<text x="478" y="713" font-family="Helvetica, Arial, sans-serif" font-size="10" fill="#3A1A4C">scene_type: multi_defect</text>
<text x="478" y="726" font-family="Helvetica, Arial, sans-serif" font-size="10" fill="#3A1A4C">defect_count: 3</text>
<text x="478" y="739" font-family="Helvetica, Arial, sans-serif" font-size="10" fill="#3A1A4C">overall_severity: multi_defect</text>
<text x="478" y="752" font-family="Helvetica, Arial, sans-serif" font-size="10" fill="#3A1A4C">worst_severity_present: imminent_danger</text>
<text x="478" y="765" font-family="Helvetica, Arial, sans-serif" font-size="10" fill="#3A1A4C">defects: [{'violation': 'vegetation_contact_primary', 'severity': 'imminent_danger'}, {'violation': 'insulator_cracked', 'severity': 'serious'}, {'violation': 'insulator_weather_stain', 'severity': 'de_minimis'}]</text>
</svg>