<svg xmlns="http://www.w3.org/2000/svg" viewBox="0 0 680 800" width="680" height="800">
<title>Phase to neutral separation undersized on sub-trans pole</title>
<desc>Pole compliance training scene. Severity: SERIOUS. Hazard: clearance violation.</desc>
<rect x="0" y="0" width="680" height="60" fill="#854F0B"/>
<text x="24" y="38" font-family="Helvetica, Arial, sans-serif" font-size="20" font-weight="600" fill="#FFFFFF">SERIOUS</text>
<text x="660" y="22" font-family="Helvetica, Arial, sans-serif" font-size="10" fill="#FAEEDA" text-anchor="end">OSHA 29 CFR 1903.14(b)</text>
<text x="660" y="37" font-family="Helvetica, Arial, sans-serif" font-size="10" fill="#FAEEDA" text-anchor="end">Hazard: clearance violation</text>
<text x="660" y="52" font-family="Helvetica, Arial, sans-serif" font-size="10" fill="#FAEEDA" text-anchor="end">Scene: daw46_05_separation</text>
<rect x="0" y="60" width="680" height="550" fill="#EAF1F7"/>
<rect x="0" y="610" width="680" height="50" fill="#D9C8A8"/>
<line x1="0" y1="610" x2="680" y2="610" stroke="#7A5C2A" stroke-width="1"/>
<path d="M 20 612 L 23 606 L 26 612" stroke="#3B6D11" stroke-width="0.7" fill="none"/>
<path d="M 48 612 L 51 606 L 54 612" stroke="#3B6D11" stroke-width="0.7" fill="none"/>
<path d="M 76 612 L 79 606 L 82 612" stroke="#3B6D11" stroke-width="0.7" fill="none"/>
<path d="M 104 612 L 107 606 L 110 612" stroke="#3B6D11" stroke-width="0.7" fill="none"/>
<path d="M 132 612 L 135 606 L 138 612" stroke="#3B6D11" stroke-width="0.7" fill="none"/>
<path d="M 160 612 L 163 606 L 166 612" stroke="#3B6D11" stroke-width="0.7" fill="none"/>
<path d="M 188 612 L 191 606 L 194 612" stroke="#3B6D11" stroke-width="0.7" fill="none"/>
<path d="M 216 612 L 219 606 L 222 612" stroke="#3B6D11" stroke-width="0.7" fill="none"/>
<path d="M 244 612 L 247 606 L 250 612" stroke="#3B6D11" stroke-width="0.7" fill="none"/>
<path d="M 272 612 L 275 606 L 278 612" stroke="#3B6D11" stroke-width="0.7" fill="none"/>
<path d="M 300 612 L 303 606 L 306 612" stroke="#3B6D11" stroke-width="0.7" fill="none"/>
<path d="M 328 612 L 331 606 L 334 612" stroke="#3B6D11" stroke-width="0.7" fill="none"/>
<path d="M 356 612 L 359 606 L 362 612" stroke="#3B6D11" stroke-width="0.7" fill="none"/>
<path d="M 384 612 L 387 606 L 390 612" stroke="#3B6D11" stroke-width="0.7" fill="none"/>
<path d="M 412 612 L 415 606 L 418 612" stroke="#3B6D11" stroke-width="0.7" fill="none"/>
<path d="M 440 612 L 443 606 L 446 612" stroke="#3B6D11" stroke-width="0.7" fill="none"/>
<path d="M 468 612 L 471 606 L 474 612" stroke="#3B6D11" stroke-width="0.7" fill="none"/>
<path d="M 496 612 L 499 606 L 502 612" stroke="#3B6D11" stroke-width="0.7" fill="none"/>
<path d="M 524 612 L 527 606 L 530 612" stroke="#3B6D11" stroke-width="0.7" fill="none"/>
<path d="M 552 612 L 555 606 L 558 612" stroke="#3B6D11" stroke-width="0.7" fill="none"/>
<path d="M 580 612 L 583 606 L 586 612" stroke="#3B6D11" stroke-width="0.7" fill="none"/>
<path d="M 608 612 L 611 606 L 614 612" stroke="#3B6D11" stroke-width="0.7" fill="none"/>
<path d="M 636 612 L 639 606 L 642 612" stroke="#3B6D11" stroke-width="0.7" fill="none"/>
<path d="M 664 612 L 667 606 L 670 612" stroke="#3B6D11" stroke-width="0.7" fill="none"/>
<rect x="0" y="475" width="58" height="55" fill="#C0AC85" stroke="#5C4426" stroke-width="0.6"/>
<polygon points="0,475 29,448 58,475" fill="#7A5C2A" stroke="#5C4426" stroke-width="0.6"/>
<rect x="20" y="495" width="12" height="20" fill="#5C4426"/>
<rect x="40" y="495" width="11" height="11" fill="#A8C8E0"/>

<polygon points="195,85 205,85 210,610 190,610" fill="#A07C50" stroke="#5C4426" stroke-width="1"/>
<polygon points="190,610 210,610 212,710 188,710" fill="#A07C50" fill-opacity="0.45" stroke="#5C4426" stroke-width="0.7" stroke-dasharray="3 2"/>
<rect x="140" y="105" width="120" height="8" fill="#6B4E2A" stroke="#3C2810" stroke-width="0.6"/>
<rect x="150" y="130" width="100" height="8" fill="#6B4E2A" stroke="#3C2810" stroke-width="0.6"/>
<line x1="200" y1="135" x2="170" y2="113" stroke="#3C2810" stroke-width="0.8"/>
<line x1="200" y1="135" x2="230" y2="113" stroke="#3C2810" stroke-width="0.8"/>
<ellipse cx="150" cy="110" rx="5" ry="3" fill="#D2D2D2" stroke="#3C3C3C" stroke-width="0.5"/>
<ellipse cx="200" cy="110" rx="5" ry="3" fill="#D2D2D2" stroke="#3C3C3C" stroke-width="0.5"/>
<ellipse cx="250" cy="110" rx="5" ry="3" fill="#D2D2D2" stroke="#3C3C3C" stroke-width="0.5"/>
<line x1="0" y1="125" x2="680" y2="125" stroke="#A32D2D" stroke-width="0.7" opacity="0.5"/>
<circle cx="150" cy="125" r="2.5" fill="#A32D2D" stroke="#501313" stroke-width="0.3"/>
<circle cx="200" cy="125" r="2.5" fill="#A32D2D" stroke="#501313" stroke-width="0.3"/>
<circle cx="250" cy="125" r="2.5" fill="#A32D2D" stroke="#501313" stroke-width="0.3"/>
<ellipse cx="200" cy="135" rx="5" ry="3" fill="#D2D2D2" stroke="#3C3C3C" stroke-width="0.5"/>
<line x1="0" y1="143" x2="680" y2="143" stroke="#5F5E5A" stroke-width="0.9"/>
<circle cx="200" cy="143" r="2" fill="#444441"/>
<line x1="209" y1="350" x2="209" y2="610" stroke="#1D9E75" stroke-width="0.8"/>
<rect x="206" y="510" width="6" height="100" fill="#5F5E5A" stroke="#2C2C2A" stroke-width="0.3"/>
<line x1="275" y1="125" x2="275" y2="143" stroke="#A32D2D" stroke-width="0.7"/>
<line x1="272" y1="125" x2="278" y2="125" stroke="#A32D2D" stroke-width="0.7"/>
<line x1="272" y1="143" x2="278" y2="143" stroke="#A32D2D" stroke-width="0.7"/>
<text x="282" y="123" font-family="Helvetica, Arial" font-size="8" fill="#A32D2D">~12 in</text>
<path d="M 480 600 Q 472 555 468 510 Q 466 490 472 478" stroke="#5C4426" stroke-width="12" fill="none" stroke-linecap="round"/>
<ellipse cx="480" cy="480" rx="50" ry="35" fill="#639922" fill-opacity="0.92" stroke="#3B6D11" stroke-width="0.4"/>
<ellipse cx="455" cy="510" rx="45" ry="32" fill="#639922" fill-opacity="0.92" stroke="#3B6D11" stroke-width="0.4"/>
<ellipse cx="505" cy="525" rx="42" ry="30" fill="#639922" fill-opacity="0.92" stroke="#3B6D11" stroke-width="0.4"/>
<ellipse cx="440" cy="540" rx="40" ry="28" fill="#639922" fill-opacity="0.92" stroke="#3B6D11" stroke-width="0.4"/>
<ellipse cx="490" cy="555" rx="38" ry="28" fill="#639922" fill-opacity="0.92" stroke="#3B6D11" stroke-width="0.4"/>
<ellipse cx="445" cy="570" rx="36" ry="26" fill="#639922" fill-opacity="0.92" stroke="#3B6D11" stroke-width="0.4"/>
<circle cx="200" cy="133" r="22" fill="#854F0B" fill-opacity="0.15"/>
<circle cx="200" cy="133" r="18" fill="none" stroke="#854F0B" stroke-width="2.2" opacity="0.85"/>
<circle cx="200" cy="133" r="14" fill="none" stroke="#854F0B" stroke-width="1" opacity="0.55"/>
<rect x="420" y="75" width="240" height="67" rx="6" fill="#FAEEDA" stroke="#854F0B" stroke-width="1.4"/>
<text x="430" y="93" font-family="Helvetica, Arial, sans-serif" font-size="13" font-weight="600" fill="#412402">Phase to neutral separation 12 in</text>
<text x="430" y="108" font-family="Helvetica, Arial, sans-serif" font-size="11" fill="#412402">NESC requires 30 in at 46 kV</text>
<text x="430" y="123" font-family="Helvetica, Arial, sans-serif" font-size="11" fill="#412402">Flashover risk during fault</text>
<rect x="262" y="111" width="79.5" height="15" fill="#FFFFFF" fill-opacity="0.78" rx="2"/>
<text x="265" y="122" font-family="Helvetica, Arial, sans-serif" font-size="10" fill="#3D3D3A">3-phase 46 kV</text>
<rect x="262" y="206" width="46.5" height="15" fill="#FFFFFF" fill-opacity="0.78" rx="2"/>
<text x="265" y="217" font-family="Helvetica, Arial, sans-serif" font-size="10" fill="#3D3D3A">neutral</text>
<rect x="57" y="314" width="118.00000000000001" height="15" fill="#FFFFFF" fill-opacity="0.78" rx="2"/>
<text x="60" y="325" font-family="Helvetica, Arial, sans-serif" font-size="10" fill="#3D3D3A">guy strain insulator</text>
<rect x="0" y="660" width="680" height="140" fill="#F1EFE8"/>
<line x1="0" y1="660" x2="680" y2="660" stroke="#73726c" stroke-width="0.6"/>
<text x="24" y="682" font-family="Helvetica, Arial, sans-serif" font-size="13" font-weight="600" fill="#2C2C2A">Regulation citations</text>
<text x="24" y="700" font-family="Helvetica, Arial, sans-serif" font-size="11" fill="#444441">NESC Rule 235: clearance between conductors</text>
<text x="24" y="716" font-family="Helvetica, Arial, sans-serif" font-size="11" fill="#444441">NESC Table 235-1: phase to ground separation</text>
<text x="24" y="732" font-family="Helvetica, Arial, sans-serif" font-size="11" fill="#444441">IEEE Std 1313: insulation coordination</text>
<text x="24" y="748" font-family="Helvetica, Arial, sans-serif" font-size="11" fill="#444441">MPSC R 460.3504: corrective action</text>
<text x="24" y="764" font-family="Helvetica, Arial, sans-serif" font-size="11" fill="#444441">Utility O and M: spacing standard</text>
<rect x="470" y="668" width="200" height="100" rx="4" fill="#FAEEDA" stroke="#854F0B" stroke-width="0.6"/>
<text x="478" y="684" font-family="Helvetica, Arial, sans-serif" font-size="11" font-weight="600" fill="#412402">Annotation metadata</text>
<text x="478" y="700" font-family="Helvetica, Arial, sans-serif" font-size="10" fill="#412402">pole_type: daw46</text>
<text x="478" y="713" font-family="Helvetica, Arial, sans-serif" font-size="10" fill="#412402">violation: phase_neutral_separation_undersized</text>
<text x="478" y="726" font-family="Helvetica, Arial, sans-serif" font-size="10" fill="#412402">severity: serious</text>
<text x="478" y="739" font-family="Helvetica, Arial, sans-serif" font-size="10" fill="#412402">hazard: flashover_during_fault</text>
<text x="478" y="752" font-family="Helvetica, Arial, sans-serif" font-size="10" fill="#412402">separation_observed_in: 12</text>
<text x="478" y="765" font-family="Helvetica, Arial, sans-serif" font-size="10" fill="#412402">separation_required_in: 30</text>
</svg>