<svg xmlns="http://www.w3.org/2000/svg" viewBox="0 0 680 800" width="680" height="800">
<title>Joint-use pole carrying design ice load</title>
<desc>Pole compliance training scene. Severity: COMPLIANT BASELINE. Hazard: ice loading within design.</desc>
<rect x="0" y="0" width="680" height="60" fill="#3B6D11"/>
<text x="24" y="38" font-family="Helvetica, Arial, sans-serif" font-size="20" font-weight="600" fill="#FFFFFF">COMPLIANT BASELINE</text>
<text x="660" y="22" font-family="Helvetica, Arial, sans-serif" font-size="10" fill="#EAF3DE" text-anchor="end">Reference scene, no violation</text>
<text x="660" y="37" font-family="Helvetica, Arial, sans-serif" font-size="10" fill="#EAF3DE" text-anchor="end">Hazard: ice loading within design</text>
<text x="660" y="52" font-family="Helvetica, Arial, sans-serif" font-size="10" fill="#EAF3DE" text-anchor="end">Scene: ju40c4_w_ice_compliant</text>
<rect x="0" y="60" width="680" height="550" fill="#EAF1F7"/>
<rect x="0" y="610" width="680" height="50" fill="#D9C8A8"/>
<line x1="0" y1="610" x2="680" y2="610" stroke="#7A5C2A" stroke-width="1"/>
<path d="M 20 612 L 23 606 L 26 612" stroke="#3B6D11" stroke-width="0.7" fill="none"/>
<path d="M 48 612 L 51 606 L 54 612" stroke="#3B6D11" stroke-width="0.7" fill="none"/>
<path d="M 76 612 L 79 606 L 82 612" stroke="#3B6D11" stroke-width="0.7" fill="none"/>
<path d="M 104 612 L 107 606 L 110 612" stroke="#3B6D11" stroke-width="0.7" fill="none"/>
<path d="M 132 612 L 135 606 L 138 612" stroke="#3B6D11" stroke-width="0.7" fill="none"/>
<path d="M 160 612 L 163 606 L 166 612" stroke="#3B6D11" stroke-width="0.7" fill="none"/>
<path d="M 188 612 L 191 606 L 194 612" stroke="#3B6D11" stroke-width="0.7" fill="none"/>
<path d="M 216 612 L 219 606 L 222 612" stroke="#3B6D11" stroke-width="0.7" fill="none"/>
<path d="M 244 612 L 247 606 L 250 612" stroke="#3B6D11" stroke-width="0.7" fill="none"/>
<path d="M 272 612 L 275 606 L 278 612" stroke="#3B6D11" stroke-width="0.7" fill="none"/>
<path d="M 300 612 L 303 606 L 306 612" stroke="#3B6D11" stroke-width="0.7" fill="none"/>
<path d="M 328 612 L 331 606 L 334 612" stroke="#3B6D11" stroke-width="0.7" fill="none"/>
<path d="M 356 612 L 359 606 L 362 612" stroke="#3B6D11" stroke-width="0.7" fill="none"/>
<path d="M 384 612 L 387 606 L 390 612" stroke="#3B6D11" stroke-width="0.7" fill="none"/>
<path d="M 412 612 L 415 606 L 418 612" stroke="#3B6D11" stroke-width="0.7" fill="none"/>
<path d="M 440 612 L 443 606 L 446 612" stroke="#3B6D11" stroke-width="0.7" fill="none"/>
<path d="M 468 612 L 471 606 L 474 612" stroke="#3B6D11" stroke-width="0.7" fill="none"/>
<path d="M 496 612 L 499 606 L 502 612" stroke="#3B6D11" stroke-width="0.7" fill="none"/>
<path d="M 524 612 L 527 606 L 530 612" stroke="#3B6D11" stroke-width="0.7" fill="none"/>
<path d="M 552 612 L 555 606 L 558 612" stroke="#3B6D11" stroke-width="0.7" fill="none"/>
<path d="M 580 612 L 583 606 L 586 612" stroke="#3B6D11" stroke-width="0.7" fill="none"/>
<path d="M 608 612 L 611 606 L 614 612" stroke="#3B6D11" stroke-width="0.7" fill="none"/>
<path d="M 636 612 L 639 606 L 642 612" stroke="#3B6D11" stroke-width="0.7" fill="none"/>
<path d="M 664 612 L 667 606 L 670 612" stroke="#3B6D11" stroke-width="0.7" fill="none"/>
<rect x="0" y="475" width="58" height="55" fill="#C0AC85" stroke="#5C4426" stroke-width="0.6"/>
<polygon points="0,475 29,448 58,475" fill="#7A5C2A" stroke="#5C4426" stroke-width="0.6"/>
<rect x="20" y="495" width="12" height="20" fill="#5C4426"/>
<rect x="40" y="495" width="11" height="11" fill="#A8C8E0"/>
<rect x="0" y="60" width="680" height="550" fill="#C9D2DA" fill-opacity="0.55"/>
<polygon points="0,475 29,448 58,475 50,475 29,455 8,475" fill="#FFFFFF" fill-opacity="0.85"/>
<rect x="0" y="610" width="680" height="50" fill="#E8ECF0" fill-opacity="0.92"/>
<polygon points="175,90 185,90 189,610 171,610" fill="#A07C50" stroke="#5C4426" stroke-width="1"/>
<polygon points="171,610 189,610 191,710 169,710" fill="#A07C50" fill-opacity="0.45" stroke="#5C4426" stroke-width="0.7" stroke-dasharray="3 2"/>
<rect x="120" y="120" width="120" height="8" fill="#6B4E2A" stroke="#3C2810" stroke-width="0.6"/>
<line x1="180" y1="155" x2="138.0" y2="128" stroke="#3C2810" stroke-width="0.8"/>
<line x1="180" y1="155" x2="222.0" y2="128" stroke="#3C2810" stroke-width="0.8"/>
<ellipse cx="135" cy="113" rx="5" ry="3" fill="#D2D2D2" stroke="#3C3C3C" stroke-width="0.5"/>
<ellipse cx="180" cy="113" rx="5" ry="3" fill="#D2D2D2" stroke="#3C3C3C" stroke-width="0.5"/>
<ellipse cx="225" cy="113" rx="5" ry="3" fill="#D2D2D2" stroke="#3C3C3C" stroke-width="0.5"/>
<line x1="0" y1="108" x2="680" y2="108" stroke="#A32D2D" stroke-width="0.5" opacity="0.5"/>
<circle cx="135" cy="108" r="2.5" fill="#A32D2D" stroke="#501313" stroke-width="0.3"/>
<circle cx="180" cy="108" r="2.5" fill="#A32D2D" stroke="#501313" stroke-width="0.3"/>
<circle cx="225" cy="108" r="2.5" fill="#A32D2D" stroke="#501313" stroke-width="0.3"/>
<rect x="130" y="143" width="10" height="18" fill="#888" stroke="#333" stroke-width="0.4"/>
<line x1="185" y1="128" x2="185" y2="133" stroke="#333" stroke-width="0.7"/>
<rect x="181" y="133" width="8" height="14" fill="#bbb" stroke="#333" stroke-width="0.4"/>
<line x1="185" y1="147" x2="185" y2="165" stroke="#333" stroke-width="0.7"/>
<rect x="195" y="192" width="34" height="76" rx="2" fill="#999" stroke="#333" stroke-width="0.6"/>
<rect x="195" y="268" width="34" height="4" fill="#777" stroke="#333" stroke-width="0.4"/>
<ellipse cx="212" cy="189" rx="3.5" ry="2.5" fill="#ddd" stroke="#333" stroke-width="0.4"/>
<line x1="212" y1="187" x2="185" y2="162" stroke="#333" stroke-width="0.5"/>
<ellipse cx="232" cy="216" rx="3" ry="2" fill="#ddd" stroke="#333" stroke-width="0.4"/>
<ellipse cx="232" cy="228" rx="3" ry="2" fill="#ddd" stroke="#333" stroke-width="0.4"/>
<ellipse cx="232" cy="240" rx="3" ry="2" fill="#ddd" stroke="#333" stroke-width="0.4"/>
<line x1="0" y1="178" x2="680" y2="178" stroke="#5F5E5A" stroke-width="0.9"/>
<circle cx="180" cy="178" r="2" fill="#444441"/>
<line x1="189" y1="350" x2="189" y2="610" stroke="#1D9E75" stroke-width="0.8"/>
<rect x="186" y="510" width="6" height="100" fill="#5F5E5A" stroke="#2C2C2A" stroke-width="0.3"/>
<line x1="0" y1="260" x2="680" y2="260" stroke="#0F6E56" stroke-width="1"/>
<circle cx="180" cy="260" r="2.2" fill="#04342C"/>
<line x1="0" y1="285" x2="680" y2="285" stroke="#0F6E56" stroke-width="0.9"/>
<circle cx="180" cy="285" r="2.2" fill="#04342C"/>
<line x1="0" y1="315" x2="680" y2="315" stroke="#0F6E56" stroke-width="1.1"/>
<circle cx="180" cy="315" r="2.2" fill="#04342C"/>
<path d="M 175 240 Q 90 300 30 430" stroke="#185FA5" stroke-width="1.3" fill="none"/>
<path d="M 480 600 Q 472 555 468 510 Q 466 490 472 478" stroke="#5C4426" stroke-width="12" fill="none" stroke-linecap="round"/>
<ellipse cx="480" cy="480" rx="50" ry="35" fill="#639922" fill-opacity="0.92" stroke="#3B6D11" stroke-width="0.4"/>
<ellipse cx="455" cy="510" rx="45" ry="32" fill="#639922" fill-opacity="0.92" stroke="#3B6D11" stroke-width="0.4"/>
<ellipse cx="505" cy="525" rx="42" ry="30" fill="#639922" fill-opacity="0.92" stroke="#3B6D11" stroke-width="0.4"/>
<ellipse cx="440" cy="540" rx="40" ry="28" fill="#639922" fill-opacity="0.92" stroke="#3B6D11" stroke-width="0.4"/>
<ellipse cx="490" cy="555" rx="38" ry="28" fill="#639922" fill-opacity="0.92" stroke="#3B6D11" stroke-width="0.4"/>
<ellipse cx="445" cy="570" rx="36" ry="26" fill="#639922" fill-opacity="0.92" stroke="#3B6D11" stroke-width="0.4"/>
<line x1="0" y1="108" x2="680" y2="108" stroke="#C8E0EE" stroke-width="3.2" opacity="0.85"/>
<polygon points="22.5,109 27.5,109 25,115" fill="#C8E0EE" stroke="#7AA0B8" stroke-width="0.4" opacity="0.9"/>
<polygon points="102.5,109 107.5,109 105,115" fill="#C8E0EE" stroke="#7AA0B8" stroke-width="0.4" opacity="0.9"/>
<polygon points="182.5,109 187.5,109 185,115" fill="#C8E0EE" stroke="#7AA0B8" stroke-width="0.4" opacity="0.9"/>
<polygon points="262.5,109 267.5,109 265,115" fill="#C8E0EE" stroke="#7AA0B8" stroke-width="0.4" opacity="0.9"/>
<polygon points="342.5,109 347.5,109 345,115" fill="#C8E0EE" stroke="#7AA0B8" stroke-width="0.4" opacity="0.9"/>
<polygon points="422.5,109 427.5,109 425,115" fill="#C8E0EE" stroke="#7AA0B8" stroke-width="0.4" opacity="0.9"/>
<polygon points="502.5,109 507.5,109 505,115" fill="#C8E0EE" stroke="#7AA0B8" stroke-width="0.4" opacity="0.9"/>
<polygon points="582.5,109 587.5,109 585,115" fill="#C8E0EE" stroke="#7AA0B8" stroke-width="0.4" opacity="0.9"/>
<line x1="0" y1="240" x2="280" y2="240" stroke="#C8E0EE" stroke-width="3.2" opacity="0.85"/>
<polygon points="22.5,241 27.5,241 25,246" fill="#C8E0EE" stroke="#7AA0B8" stroke-width="0.4" opacity="0.9"/>
<polygon points="107.5,241 112.5,241 110,246" fill="#C8E0EE" stroke="#7AA0B8" stroke-width="0.4" opacity="0.9"/>
<polygon points="192.5,241 197.5,241 195,246" fill="#C8E0EE" stroke="#7AA0B8" stroke-width="0.4" opacity="0.9"/>
<ellipse cx="158" cy="108" rx="6" ry="4" fill="#C8E0EE" stroke="#7AA0B8" stroke-width="0.4" opacity="0.85"/>
<ellipse cx="202" cy="108" rx="6" ry="4" fill="#C8E0EE" stroke="#7AA0B8" stroke-width="0.4" opacity="0.85"/>
<rect x="420" y="75" width="240" height="82" rx="6" fill="#EAF3DE" stroke="#3B6D11" stroke-width="1.4"/>
<text x="430" y="93" font-family="Helvetica, Arial, sans-serif" font-size="13" font-weight="600" fill="#173404">Glaze ice on all conductors</text>
<text x="430" y="108" font-family="Helvetica, Arial, sans-serif" font-size="11" fill="#173404">Service drop within clearance</text>
<text x="430" y="123" font-family="Helvetica, Arial, sans-serif" font-size="11" fill="#173404">Joint-use spacings maintained</text>
<text x="430" y="138" font-family="Helvetica, Arial, sans-serif" font-size="11" fill="#173404">Routine ice event, no action</text>
<rect x="242" y="94" width="118.00000000000001" height="15" fill="#FFFFFF" fill-opacity="0.78" rx="2"/>
<text x="245" y="105" font-family="Helvetica, Arial, sans-serif" font-size="10" fill="#3D3D3A">primary 12.47/7.2 kV</text>
<rect x="242" y="164" width="85.0" height="15" fill="#FFFFFF" fill-opacity="0.78" rx="2"/>
<text x="245" y="175" font-family="Helvetica, Arial, sans-serif" font-size="10" fill="#3D3D3A">system neutral</text>
<rect x="242" y="246" width="30.0" height="15" fill="#FFFFFF" fill-opacity="0.78" rx="2"/>
<text x="245" y="257" font-family="Helvetica, Arial, sans-serif" font-size="10" fill="#3D3D3A">CATV</text>
<rect x="242" y="271" width="35.5" height="15" fill="#FFFFFF" fill-opacity="0.78" rx="2"/>
<text x="245" y="282" font-family="Helvetica, Arial, sans-serif" font-size="10" fill="#3D3D3A">fiber</text>
<rect x="242" y="301" width="35.5" height="15" fill="#FFFFFF" fill-opacity="0.78" rx="2"/>
<text x="245" y="312" font-family="Helvetica, Arial, sans-serif" font-size="10" fill="#3D3D3A">telco</text>
<rect x="0" y="660" width="680" height="140" fill="#F1EFE8"/>
<line x1="0" y1="660" x2="680" y2="660" stroke="#73726c" stroke-width="0.6"/>
<text x="24" y="682" font-family="Helvetica, Arial, sans-serif" font-size="13" font-weight="600" fill="#2C2C2A">Regulation citations</text>
<text x="24" y="700" font-family="Helvetica, Arial, sans-serif" font-size="11" fill="#444441">NESC Rule 250.B: ice and wind design loading</text>
<text x="24" y="716" font-family="Helvetica, Arial, sans-serif" font-size="11" fill="#444441">NESC Rule 232: clearance preserved under ice</text>
<text x="24" y="732" font-family="Helvetica, Arial, sans-serif" font-size="11" fill="#444441">NESC Rule 238: safety zone under ice loading</text>
<text x="24" y="748" font-family="Helvetica, Arial, sans-serif" font-size="11" fill="#444441">Consumers Energy / DTE winter standards</text>
<text x="24" y="764" font-family="Helvetica, Arial, sans-serif" font-size="11" fill="#444441">MPSC R 460.3504: routine winter inspection</text>
<rect x="470" y="668" width="200" height="100" rx="4" fill="#EAF3DE" stroke="#3B6D11" stroke-width="0.6"/>
<text x="478" y="684" font-family="Helvetica, Arial, sans-serif" font-size="11" font-weight="600" fill="#173404">Annotation metadata</text>
<text x="478" y="700" font-family="Helvetica, Arial, sans-serif" font-size="10" fill="#173404">pole_type: ju40c4</text>
<text x="478" y="713" font-family="Helvetica, Arial, sans-serif" font-size="10" fill="#173404">scene_type: weather_context</text>
<text x="478" y="726" font-family="Helvetica, Arial, sans-serif" font-size="10" fill="#173404">weather_condition: ice_loading</text>
<text x="478" y="739" font-family="Helvetica, Arial, sans-serif" font-size="10" fill="#173404">framing: compliant_with_weather</text>
<text x="478" y="752" font-family="Helvetica, Arial, sans-serif" font-size="10" fill="#173404">ice_radial_in: 0.5</text>
</svg>