<svg xmlns="http://www.w3.org/2000/svg" viewBox="0 0 680 800" width="680" height="800">
<title>Summer sag plus aging install findings</title>
<desc>Pole compliance training scene. Severity: MULTI-DEFECT. Hazard: summer sag + aging install.</desc>
<rect x="0" y="0" width="680" height="60" fill="#6B2D8C"/>
<text x="24" y="38" font-family="Helvetica, Arial, sans-serif" font-size="20" font-weight="600" fill="#FFFFFF">MULTI-DEFECT</text>
<text x="660" y="22" font-family="Helvetica, Arial, sans-serif" font-size="10" fill="#EFE6F5" text-anchor="end">Multiple findings, see metadata</text>
<text x="660" y="37" font-family="Helvetica, Arial, sans-serif" font-size="10" fill="#EFE6F5" text-anchor="end">Hazard: summer sag + aging install</text>
<text x="660" y="52" font-family="Helvetica, Arial, sans-serif" font-size="10" fill="#EFE6F5" text-anchor="end">Scene: serv30c6_wmd_summer_aging</text>
<rect x="0" y="60" width="680" height="550" fill="#EAF1F7"/>
<rect x="0" y="610" width="680" height="50" fill="#D9C8A8"/>
<line x1="0" y1="610" x2="680" y2="610" stroke="#7A5C2A" stroke-width="1"/>
<path d="M 20 612 L 23 606 L 26 612" stroke="#3B6D11" stroke-width="0.7" fill="none"/>
<path d="M 48 612 L 51 606 L 54 612" stroke="#3B6D11" stroke-width="0.7" fill="none"/>
<path d="M 76 612 L 79 606 L 82 612" stroke="#3B6D11" stroke-width="0.7" fill="none"/>
<path d="M 104 612 L 107 606 L 110 612" stroke="#3B6D11" stroke-width="0.7" fill="none"/>
<path d="M 132 612 L 135 606 L 138 612" stroke="#3B6D11" stroke-width="0.7" fill="none"/>
<path d="M 160 612 L 163 606 L 166 612" stroke="#3B6D11" stroke-width="0.7" fill="none"/>
<path d="M 188 612 L 191 606 L 194 612" stroke="#3B6D11" stroke-width="0.7" fill="none"/>
<path d="M 216 612 L 219 606 L 222 612" stroke="#3B6D11" stroke-width="0.7" fill="none"/>
<path d="M 244 612 L 247 606 L 250 612" stroke="#3B6D11" stroke-width="0.7" fill="none"/>
<path d="M 272 612 L 275 606 L 278 612" stroke="#3B6D11" stroke-width="0.7" fill="none"/>
<path d="M 300 612 L 303 606 L 306 612" stroke="#3B6D11" stroke-width="0.7" fill="none"/>
<path d="M 328 612 L 331 606 L 334 612" stroke="#3B6D11" stroke-width="0.7" fill="none"/>
<path d="M 356 612 L 359 606 L 362 612" stroke="#3B6D11" stroke-width="0.7" fill="none"/>
<path d="M 384 612 L 387 606 L 390 612" stroke="#3B6D11" stroke-width="0.7" fill="none"/>
<path d="M 412 612 L 415 606 L 418 612" stroke="#3B6D11" stroke-width="0.7" fill="none"/>
<path d="M 440 612 L 443 606 L 446 612" stroke="#3B6D11" stroke-width="0.7" fill="none"/>
<path d="M 468 612 L 471 606 L 474 612" stroke="#3B6D11" stroke-width="0.7" fill="none"/>
<path d="M 496 612 L 499 606 L 502 612" stroke="#3B6D11" stroke-width="0.7" fill="none"/>
<path d="M 524 612 L 527 606 L 530 612" stroke="#3B6D11" stroke-width="0.7" fill="none"/>
<path d="M 552 612 L 555 606 L 558 612" stroke="#3B6D11" stroke-width="0.7" fill="none"/>
<path d="M 580 612 L 583 606 L 586 612" stroke="#3B6D11" stroke-width="0.7" fill="none"/>
<path d="M 608 612 L 611 606 L 614 612" stroke="#3B6D11" stroke-width="0.7" fill="none"/>
<path d="M 636 612 L 639 606 L 642 612" stroke="#3B6D11" stroke-width="0.7" fill="none"/>
<path d="M 664 612 L 667 606 L 670 612" stroke="#3B6D11" stroke-width="0.7" fill="none"/>
<rect x="0" y="475" width="58" height="55" fill="#C0AC85" stroke="#5C4426" stroke-width="0.6"/>
<polygon points="0,475 29,448 58,475" fill="#7A5C2A" stroke="#5C4426" stroke-width="0.6"/>
<rect x="20" y="495" width="12" height="20" fill="#5C4426"/>
<rect x="40" y="495" width="11" height="11" fill="#A8C8E0"/>
<rect x="0" y="60" width="680" height="550" fill="#FFE8B0" fill-opacity="0.22"/>
<circle cx="600" cy="115" r="36" fill="#FFE585" fill-opacity="0.55"/>
<circle cx="600" cy="115" r="22" fill="#FFF4C0" fill-opacity="0.8"/>
<path d="M 40 600 Q 48 595 56 600" stroke="#E0B870" stroke-width="0.6" fill="none" opacity="0.4"/>
<path d="M 80 600 Q 88 595 96 600" stroke="#E0B870" stroke-width="0.6" fill="none" opacity="0.4"/>
<path d="M 120 600 Q 128 595 136 600" stroke="#E0B870" stroke-width="0.6" fill="none" opacity="0.4"/>
<path d="M 160 600 Q 168 595 176 600" stroke="#E0B870" stroke-width="0.6" fill="none" opacity="0.4"/>
<path d="M 200 600 Q 208 595 216 600" stroke="#E0B870" stroke-width="0.6" fill="none" opacity="0.4"/>
<path d="M 240 600 Q 248 595 256 600" stroke="#E0B870" stroke-width="0.6" fill="none" opacity="0.4"/>
<path d="M 280 600 Q 288 595 296 600" stroke="#E0B870" stroke-width="0.6" fill="none" opacity="0.4"/>
<path d="M 320 600 Q 328 595 336 600" stroke="#E0B870" stroke-width="0.6" fill="none" opacity="0.4"/>
<path d="M 360 600 Q 368 595 376 600" stroke="#E0B870" stroke-width="0.6" fill="none" opacity="0.4"/>
<path d="M 400 600 Q 408 595 416 600" stroke="#E0B870" stroke-width="0.6" fill="none" opacity="0.4"/>
<path d="M 440 600 Q 448 595 456 600" stroke="#E0B870" stroke-width="0.6" fill="none" opacity="0.4"/>
<path d="M 480 600 Q 488 595 496 600" stroke="#E0B870" stroke-width="0.6" fill="none" opacity="0.4"/>
<path d="M 520 600 Q 528 595 536 600" stroke="#E0B870" stroke-width="0.6" fill="none" opacity="0.4"/>
<path d="M 560 600 Q 568 595 576 600" stroke="#E0B870" stroke-width="0.6" fill="none" opacity="0.4"/>
<path d="M 600 600 Q 608 595 616 600" stroke="#E0B870" stroke-width="0.6" fill="none" opacity="0.4"/>
<path d="M 640 600 Q 648 595 656 600" stroke="#E0B870" stroke-width="0.6" fill="none" opacity="0.4"/>
<polygon points="177,220 183,220 187,610 173,610" fill="#A07C50" stroke="#5C4426" stroke-width="1"/>
<polygon points="173,610 187,610 189,710 171,710" fill="#A07C50" fill-opacity="0.45" stroke="#5C4426" stroke-width="0.7" stroke-dasharray="3 2"/>
<line x1="0" y1="225" x2="680" y2="225" stroke="#185FA5" stroke-width="1.4"/>
<line x1="0" y1="232" x2="680" y2="232" stroke="#5F5E5A" stroke-width="0.9"/>
<circle cx="180" cy="240" r="2.2" fill="#0C447C"/>
<rect x="190" y="380" width="32" height="50" rx="2" fill="#C8C8C8" stroke="#444" stroke-width="0.7"/>
<circle cx="206" cy="398" r="9" fill="#FFF" stroke="#444" stroke-width="0.6"/>
<line x1="206" y1="395" x2="210" y2="401" stroke="#A32D2D" stroke-width="0.7"/>
<rect x="188" y="368" width="36" height="14" rx="2" fill="#888" stroke="#333" stroke-width="0.5"/>
<path d="M 198 368 C 195 255 210 250 200 243" stroke="#5F5E5A" stroke-width="2" fill="none"/>
<path d="M 175 240 Q 90 300 30 430" stroke="#185FA5" stroke-width="1.3" fill="none"/>
<line x1="189" y1="350" x2="189" y2="610" stroke="#1D9E75" stroke-width="0.8"/>
<rect x="186" y="510" width="6" height="100" fill="#5F5E5A" stroke="#2C2C2A" stroke-width="0.3"/>
<path d="M 175 240 Q 90 340 30 470" stroke="#185FA5" stroke-width="1.4" fill="none"/>
<text x="162" y="405" font-family="Helvetica, Arial, sans-serif" font-size="8" fill="#5F5E5A">inv</text>
<circle cx="60" cy="460" r="22" fill="#854F0B" fill-opacity="0.15"/>
<circle cx="60" cy="460" r="18" fill="none" stroke="#854F0B" stroke-width="2.2" opacity="0.85"/>
<circle cx="60" cy="460" r="14" fill="none" stroke="#854F0B" stroke-width="1" opacity="0.55"/>
<circle cx="165" cy="405" r="18" fill="#5F5E5A" fill-opacity="0.15"/>
<circle cx="165" cy="405" r="14" fill="none" stroke="#5F5E5A" stroke-width="2.2" opacity="0.85"/>
<circle cx="165" cy="405" r="10" fill="none" stroke="#5F5E5A" stroke-width="1" opacity="0.55"/>
<rect x="420" y="75" width="240" height="82" rx="6" fill="#EFE6F5" stroke="#6B2D8C" stroke-width="1.4"/>
<text x="430" y="93" font-family="Helvetica, Arial, sans-serif" font-size="13" font-weight="600" fill="#3A1A4C">[S] Summer sag pulled drop low</text>
<text x="430" y="108" font-family="Helvetica, Arial, sans-serif" font-size="11" fill="#3A1A4C">[D] Meter mounted upside down</text>
<text x="430" y="123" font-family="Helvetica, Arial, sans-serif" font-size="11" fill="#3A1A4C">Old install plus weather effect</text>
<text x="430" y="138" font-family="Helvetica, Arial, sans-serif" font-size="11" fill="#3A1A4C">Re-tension drop, fix meter</text>
<rect x="242" y="211" width="156.5" height="15" fill="#FFFFFF" fill-opacity="0.78" rx="2"/>
<text x="245" y="222" font-family="Helvetica, Arial, sans-serif" font-size="10" fill="#3D3D3A">overhead secondary 120/240V</text>
<rect x="242" y="219" width="85.0" height="15" fill="#FFFFFF" fill-opacity="0.78" rx="2"/>
<text x="245" y="230" font-family="Helvetica, Arial, sans-serif" font-size="10" fill="#3D3D3A">system neutral</text>
<rect x="277" y="351" width="74.0" height="15" fill="#FFFFFF" fill-opacity="0.78" rx="2"/>
<text x="280" y="362" font-family="Helvetica, Arial, sans-serif" font-size="10" fill="#3D3D3A">weather head</text>
<rect x="277" y="389" width="85.0" height="15" fill="#FFFFFF" fill-opacity="0.78" rx="2"/>
<text x="280" y="400" font-family="Helvetica, Arial, sans-serif" font-size="10" fill="#3D3D3A">kWh meter base</text>
<rect x="0" y="660" width="680" height="140" fill="#F1EFE8"/>
<line x1="0" y1="660" x2="680" y2="660" stroke="#73726c" stroke-width="0.6"/>
<text x="24" y="682" font-family="Helvetica, Arial, sans-serif" font-size="13" font-weight="600" fill="#2C2C2A">Regulation citations</text>
<text x="24" y="700" font-family="Helvetica, Arial, sans-serif" font-size="11" fill="#444441">NESC Rule 230.C: service drop clearance</text>
<text x="24" y="716" font-family="Helvetica, Arial, sans-serif" font-size="11" fill="#444441">NESC Rule 261.C: max temp sag</text>
<text x="24" y="732" font-family="Helvetica, Arial, sans-serif" font-size="11" fill="#444441">ANSI C12: meter orientation</text>
<text x="24" y="748" font-family="Helvetica, Arial, sans-serif" font-size="11" fill="#444441">MPSC R 460.601: corrective action</text>
<text x="24" y="764" font-family="Helvetica, Arial, sans-serif" font-size="11" fill="#444441">IEEE Std 738: thermal rating</text>
<rect x="470" y="668" width="200" height="100" rx="4" fill="#EFE6F5" stroke="#6B2D8C" stroke-width="0.6"/>
<text x="478" y="684" font-family="Helvetica, Arial, sans-serif" font-size="11" font-weight="600" fill="#3A1A4C">Annotation metadata</text>
<text x="478" y="700" font-family="Helvetica, Arial, sans-serif" font-size="10" fill="#3A1A4C">pole_type: serv30c6</text>
<text x="478" y="713" font-family="Helvetica, Arial, sans-serif" font-size="10" fill="#3A1A4C">scene_type: multi_defect</text>
<text x="478" y="726" font-family="Helvetica, Arial, sans-serif" font-size="10" fill="#3A1A4C">weather_condition: summer_thermal</text>
<text x="478" y="739" font-family="Helvetica, Arial, sans-serif" font-size="10" fill="#3A1A4C">framing: weather_plus_multi_defect</text>
<text x="478" y="752" font-family="Helvetica, Arial, sans-serif" font-size="10" fill="#3A1A4C">defect_count: 2</text>
<text x="478" y="765" font-family="Helvetica, Arial, sans-serif" font-size="10" fill="#3A1A4C">overall_severity: multi_defect</text>
</svg>