<svg xmlns="http://www.w3.org/2000/svg" viewBox="0 0 680 800" width="680" height="800">
<title>Unauthorized third-party attachment on service pole</title>
<desc>Pole compliance training scene. Severity: OTHER-THAN-SERIOUS. Hazard: regulatory compliance.</desc>
<rect x="0" y="0" width="680" height="60" fill="#BA7517"/>
<text x="24" y="38" font-family="Helvetica, Arial, sans-serif" font-size="20" font-weight="600" fill="#FFFFFF">OTHER-THAN-SERIOUS</text>
<text x="660" y="22" font-family="Helvetica, Arial, sans-serif" font-size="10" fill="#FAEEDA" text-anchor="end">OSHA 29 CFR 1903.14(c)</text>
<text x="660" y="37" font-family="Helvetica, Arial, sans-serif" font-size="10" fill="#FAEEDA" text-anchor="end">Hazard: regulatory compliance</text>
<text x="660" y="52" font-family="Helvetica, Arial, sans-serif" font-size="10" fill="#FAEEDA" text-anchor="end">Scene: serv30c6_05_unauthorized</text>
<rect x="0" y="60" width="680" height="550" fill="#EAF1F7"/>
<rect x="0" y="610" width="680" height="50" fill="#D9C8A8"/>
<line x1="0" y1="610" x2="680" y2="610" stroke="#7A5C2A" stroke-width="1"/>
<path d="M 20 612 L 23 606 L 26 612" stroke="#3B6D11" stroke-width="0.7" fill="none"/>
<path d="M 48 612 L 51 606 L 54 612" stroke="#3B6D11" stroke-width="0.7" fill="none"/>
<path d="M 76 612 L 79 606 L 82 612" stroke="#3B6D11" stroke-width="0.7" fill="none"/>
<path d="M 104 612 L 107 606 L 110 612" stroke="#3B6D11" stroke-width="0.7" fill="none"/>
<path d="M 132 612 L 135 606 L 138 612" stroke="#3B6D11" stroke-width="0.7" fill="none"/>
<path d="M 160 612 L 163 606 L 166 612" stroke="#3B6D11" stroke-width="0.7" fill="none"/>
<path d="M 188 612 L 191 606 L 194 612" stroke="#3B6D11" stroke-width="0.7" fill="none"/>
<path d="M 216 612 L 219 606 L 222 612" stroke="#3B6D11" stroke-width="0.7" fill="none"/>
<path d="M 244 612 L 247 606 L 250 612" stroke="#3B6D11" stroke-width="0.7" fill="none"/>
<path d="M 272 612 L 275 606 L 278 612" stroke="#3B6D11" stroke-width="0.7" fill="none"/>
<path d="M 300 612 L 303 606 L 306 612" stroke="#3B6D11" stroke-width="0.7" fill="none"/>
<path d="M 328 612 L 331 606 L 334 612" stroke="#3B6D11" stroke-width="0.7" fill="none"/>
<path d="M 356 612 L 359 606 L 362 612" stroke="#3B6D11" stroke-width="0.7" fill="none"/>
<path d="M 384 612 L 387 606 L 390 612" stroke="#3B6D11" stroke-width="0.7" fill="none"/>
<path d="M 412 612 L 415 606 L 418 612" stroke="#3B6D11" stroke-width="0.7" fill="none"/>
<path d="M 440 612 L 443 606 L 446 612" stroke="#3B6D11" stroke-width="0.7" fill="none"/>
<path d="M 468 612 L 471 606 L 474 612" stroke="#3B6D11" stroke-width="0.7" fill="none"/>
<path d="M 496 612 L 499 606 L 502 612" stroke="#3B6D11" stroke-width="0.7" fill="none"/>
<path d="M 524 612 L 527 606 L 530 612" stroke="#3B6D11" stroke-width="0.7" fill="none"/>
<path d="M 552 612 L 555 606 L 558 612" stroke="#3B6D11" stroke-width="0.7" fill="none"/>
<path d="M 580 612 L 583 606 L 586 612" stroke="#3B6D11" stroke-width="0.7" fill="none"/>
<path d="M 608 612 L 611 606 L 614 612" stroke="#3B6D11" stroke-width="0.7" fill="none"/>
<path d="M 636 612 L 639 606 L 642 612" stroke="#3B6D11" stroke-width="0.7" fill="none"/>
<path d="M 664 612 L 667 606 L 670 612" stroke="#3B6D11" stroke-width="0.7" fill="none"/>
<rect x="0" y="475" width="58" height="55" fill="#C0AC85" stroke="#5C4426" stroke-width="0.6"/>
<polygon points="0,475 29,448 58,475" fill="#7A5C2A" stroke="#5C4426" stroke-width="0.6"/>
<rect x="20" y="495" width="12" height="20" fill="#5C4426"/>
<rect x="40" y="495" width="11" height="11" fill="#A8C8E0"/>

<polygon points="177,220 183,220 187,610 173,610" fill="#A07C50" stroke="#5C4426" stroke-width="1"/>
<polygon points="173,610 187,610 189,710 171,710" fill="#A07C50" fill-opacity="0.45" stroke="#5C4426" stroke-width="0.7" stroke-dasharray="3 2"/>
<line x1="0" y1="225" x2="680" y2="225" stroke="#185FA5" stroke-width="1.4"/>
<line x1="0" y1="232" x2="680" y2="232" stroke="#5F5E5A" stroke-width="0.9"/>
<circle cx="180" cy="240" r="2.2" fill="#0C447C"/>
<rect x="190" y="380" width="32" height="50" rx="2" fill="#C8C8C8" stroke="#444" stroke-width="0.7"/>
<circle cx="206" cy="398" r="9" fill="#FFF" stroke="#444" stroke-width="0.6"/>
<line x1="206" y1="395" x2="210" y2="401" stroke="#A32D2D" stroke-width="0.7"/>
<rect x="188" y="368" width="36" height="14" rx="2" fill="#888" stroke="#333" stroke-width="0.5"/>
<path d="M 198 368 C 195 255 210 250 200 243" stroke="#5F5E5A" stroke-width="2" fill="none"/>
<path d="M 175 240 Q 90 300 30 430" stroke="#185FA5" stroke-width="1.3" fill="none"/>
<line x1="189" y1="350" x2="189" y2="610" stroke="#1D9E75" stroke-width="0.8"/>
<rect x="186" y="510" width="6" height="100" fill="#5F5E5A" stroke="#2C2C2A" stroke-width="0.3"/>
<path d="M 480 600 Q 472 555 468 510 Q 466 490 472 478" stroke="#5C4426" stroke-width="12" fill="none" stroke-linecap="round"/>
<ellipse cx="480" cy="480" rx="50" ry="35" fill="#639922" fill-opacity="0.92" stroke="#3B6D11" stroke-width="0.4"/>
<ellipse cx="455" cy="510" rx="45" ry="32" fill="#639922" fill-opacity="0.92" stroke="#3B6D11" stroke-width="0.4"/>
<ellipse cx="505" cy="525" rx="42" ry="30" fill="#639922" fill-opacity="0.92" stroke="#3B6D11" stroke-width="0.4"/>
<ellipse cx="440" cy="540" rx="40" ry="28" fill="#639922" fill-opacity="0.92" stroke="#3B6D11" stroke-width="0.4"/>
<ellipse cx="490" cy="555" rx="38" ry="28" fill="#639922" fill-opacity="0.92" stroke="#3B6D11" stroke-width="0.4"/>
<ellipse cx="445" cy="570" rx="36" ry="26" fill="#639922" fill-opacity="0.92" stroke="#3B6D11" stroke-width="0.4"/>
<line x1="171" y1="270" x2="171" y2="490" stroke="#5C4426" stroke-width="2.2"/>
<line x1="0" y1="265" x2="171" y2="270" stroke="#5C4426" stroke-width="2"/>
<rect x="167" y="295" width="8" height="3" fill="#1A1A18"/>
<rect x="167" y="385" width="8" height="3" fill="#1A1A18"/>
<rect x="167" y="465" width="8" height="3" fill="#1A1A18"/>
<circle cx="171" cy="380" r="32" fill="#BA7517" fill-opacity="0.15"/>
<circle cx="171" cy="380" r="28" fill="none" stroke="#BA7517" stroke-width="2.2" opacity="0.85"/>
<circle cx="171" cy="380" r="24" fill="none" stroke="#BA7517" stroke-width="1" opacity="0.55"/>
<rect x="420" y="75" width="240" height="67" rx="6" fill="#FAEEDA" stroke="#BA7517" stroke-width="1.4"/>
<text x="430" y="93" font-family="Helvetica, Arial, sans-serif" font-size="13" font-weight="600" fill="#633806">Unauthorized third-party attach</text>
<text x="430" y="108" font-family="Helvetica, Arial, sans-serif" font-size="11" fill="#633806">No pole-attachment agreement</text>
<text x="430" y="123" font-family="Helvetica, Arial, sans-serif" font-size="11" fill="#633806">Hardware not utility-approved</text>
<rect x="242" y="211" width="156.5" height="15" fill="#FFFFFF" fill-opacity="0.78" rx="2"/>
<text x="245" y="222" font-family="Helvetica, Arial, sans-serif" font-size="10" fill="#3D3D3A">overhead secondary 120/240V</text>
<rect x="242" y="219" width="85.0" height="15" fill="#FFFFFF" fill-opacity="0.78" rx="2"/>
<text x="245" y="230" font-family="Helvetica, Arial, sans-serif" font-size="10" fill="#3D3D3A">system neutral</text>
<rect x="277" y="351" width="74.0" height="15" fill="#FFFFFF" fill-opacity="0.78" rx="2"/>
<text x="280" y="362" font-family="Helvetica, Arial, sans-serif" font-size="10" fill="#3D3D3A">weather head</text>
<rect x="277" y="389" width="85.0" height="15" fill="#FFFFFF" fill-opacity="0.78" rx="2"/>
<text x="280" y="400" font-family="Helvetica, Arial, sans-serif" font-size="10" fill="#3D3D3A">kWh meter base</text>
<rect x="0" y="660" width="680" height="140" fill="#F1EFE8"/>
<line x1="0" y1="660" x2="680" y2="660" stroke="#73726c" stroke-width="0.6"/>
<text x="24" y="682" font-family="Helvetica, Arial, sans-serif" font-size="13" font-weight="600" fill="#2C2C2A">Regulation citations</text>
<text x="24" y="700" font-family="Helvetica, Arial, sans-serif" font-size="11" fill="#444441">Pole attachment agreement requirement (47 USC 224)</text>
<text x="24" y="716" font-family="Helvetica, Arial, sans-serif" font-size="11" fill="#444441">Michigan pole attachment regulations</text>
<text x="24" y="732" font-family="Helvetica, Arial, sans-serif" font-size="11" fill="#444441">NESC Rule 235.E: communication and supply separation</text>
<text x="24" y="748" font-family="Helvetica, Arial, sans-serif" font-size="11" fill="#444441">MPSC R 460.3504: inspection and remediation</text>
<text x="24" y="764" font-family="Helvetica, Arial, sans-serif" font-size="11" fill="#444441">Utility tariff: unauthorized attachment removal</text>
<rect x="470" y="668" width="200" height="100" rx="4" fill="#FAEEDA" stroke="#BA7517" stroke-width="0.6"/>
<text x="478" y="684" font-family="Helvetica, Arial, sans-serif" font-size="11" font-weight="600" fill="#633806">Annotation metadata</text>
<text x="478" y="700" font-family="Helvetica, Arial, sans-serif" font-size="10" fill="#633806">pole_type: serv30c6</text>
<text x="478" y="713" font-family="Helvetica, Arial, sans-serif" font-size="10" fill="#633806">violation: unauthorized_attachment</text>
<text x="478" y="726" font-family="Helvetica, Arial, sans-serif" font-size="10" fill="#633806">severity: other_than_serious</text>
<text x="478" y="739" font-family="Helvetica, Arial, sans-serif" font-size="10" fill="#633806">hazard: regulatory_compliance</text>
<text x="478" y="752" font-family="Helvetica, Arial, sans-serif" font-size="10" fill="#633806">component: unknown_third_party_cable</text>
</svg>