<svg xmlns="http://www.w3.org/2000/svg" viewBox="0 0 680 800" width="680" height="800">
<title>Ice loading, conductor and pole within design capacity</title>
<desc>Pole compliance training scene. Severity: COMPLIANT BASELINE. Hazard: ice loading within design.</desc>
<rect x="0" y="0" width="680" height="60" fill="#3B6D11"/>
<text x="24" y="38" font-family="Helvetica, Arial, sans-serif" font-size="20" font-weight="600" fill="#FFFFFF">COMPLIANT BASELINE</text>
<text x="660" y="22" font-family="Helvetica, Arial, sans-serif" font-size="10" fill="#EAF3DE" text-anchor="end">Reference scene, no violation</text>
<text x="660" y="37" font-family="Helvetica, Arial, sans-serif" font-size="10" fill="#EAF3DE" text-anchor="end">Hazard: ice loading within design</text>
<text x="660" y="52" font-family="Helvetica, Arial, sans-serif" font-size="10" fill="#EAF3DE" text-anchor="end">Scene: sp35c5_w_ice_compliant</text>
<rect x="0" y="60" width="680" height="550" fill="#EAF1F7"/>
<rect x="0" y="610" width="680" height="50" fill="#D9C8A8"/>
<line x1="0" y1="610" x2="680" y2="610" stroke="#7A5C2A" stroke-width="1"/>
<path d="M 20 612 L 23 606 L 26 612" stroke="#3B6D11" stroke-width="0.7" fill="none"/>
<path d="M 48 612 L 51 606 L 54 612" stroke="#3B6D11" stroke-width="0.7" fill="none"/>
<path d="M 76 612 L 79 606 L 82 612" stroke="#3B6D11" stroke-width="0.7" fill="none"/>
<path d="M 104 612 L 107 606 L 110 612" stroke="#3B6D11" stroke-width="0.7" fill="none"/>
<path d="M 132 612 L 135 606 L 138 612" stroke="#3B6D11" stroke-width="0.7" fill="none"/>
<path d="M 160 612 L 163 606 L 166 612" stroke="#3B6D11" stroke-width="0.7" fill="none"/>
<path d="M 188 612 L 191 606 L 194 612" stroke="#3B6D11" stroke-width="0.7" fill="none"/>
<path d="M 216 612 L 219 606 L 222 612" stroke="#3B6D11" stroke-width="0.7" fill="none"/>
<path d="M 244 612 L 247 606 L 250 612" stroke="#3B6D11" stroke-width="0.7" fill="none"/>
<path d="M 272 612 L 275 606 L 278 612" stroke="#3B6D11" stroke-width="0.7" fill="none"/>
<path d="M 300 612 L 303 606 L 306 612" stroke="#3B6D11" stroke-width="0.7" fill="none"/>
<path d="M 328 612 L 331 606 L 334 612" stroke="#3B6D11" stroke-width="0.7" fill="none"/>
<path d="M 356 612 L 359 606 L 362 612" stroke="#3B6D11" stroke-width="0.7" fill="none"/>
<path d="M 384 612 L 387 606 L 390 612" stroke="#3B6D11" stroke-width="0.7" fill="none"/>
<path d="M 412 612 L 415 606 L 418 612" stroke="#3B6D11" stroke-width="0.7" fill="none"/>
<path d="M 440 612 L 443 606 L 446 612" stroke="#3B6D11" stroke-width="0.7" fill="none"/>
<path d="M 468 612 L 471 606 L 474 612" stroke="#3B6D11" stroke-width="0.7" fill="none"/>
<path d="M 496 612 L 499 606 L 502 612" stroke="#3B6D11" stroke-width="0.7" fill="none"/>
<path d="M 524 612 L 527 606 L 530 612" stroke="#3B6D11" stroke-width="0.7" fill="none"/>
<path d="M 552 612 L 555 606 L 558 612" stroke="#3B6D11" stroke-width="0.7" fill="none"/>
<path d="M 580 612 L 583 606 L 586 612" stroke="#3B6D11" stroke-width="0.7" fill="none"/>
<path d="M 608 612 L 611 606 L 614 612" stroke="#3B6D11" stroke-width="0.7" fill="none"/>
<path d="M 636 612 L 639 606 L 642 612" stroke="#3B6D11" stroke-width="0.7" fill="none"/>
<path d="M 664 612 L 667 606 L 670 612" stroke="#3B6D11" stroke-width="0.7" fill="none"/>
<rect x="0" y="475" width="58" height="55" fill="#C0AC85" stroke="#5C4426" stroke-width="0.6"/>
<polygon points="0,475 29,448 58,475" fill="#7A5C2A" stroke="#5C4426" stroke-width="0.6"/>
<rect x="20" y="495" width="12" height="20" fill="#5C4426"/>
<rect x="40" y="495" width="11" height="11" fill="#A8C8E0"/>
<rect x="0" y="60" width="680" height="550" fill="#C9D2DA" fill-opacity="0.55"/>
<polygon points="0,475 29,448 58,475 50,475 29,455 8,475" fill="#FFFFFF" fill-opacity="0.85"/>
<rect x="0" y="610" width="680" height="50" fill="#E8ECF0" fill-opacity="0.92"/>
<polygon points="176,155 184,155 188,610 172,610" fill="#A07C50" stroke="#5C4426" stroke-width="1"/>
<polygon points="172,610 188,610 190,710 170,710" fill="#A07C50" fill-opacity="0.45" stroke="#5C4426" stroke-width="0.7" stroke-dasharray="3 2"/>
<rect x="177" y="150" width="6" height="5" fill="#6B4E2A" stroke="#3C2810" stroke-width="0.4"/>
<ellipse cx="180" cy="146" rx="5" ry="3" fill="#D2D2D2" stroke="#3C3C3C" stroke-width="0.5"/>
<line x1="0" y1="168" x2="680" y2="168" stroke="#A32D2D" stroke-width="0.5" opacity="0.5"/>
<circle cx="180" cy="168" r="2.5" fill="#A32D2D" stroke="#501313" stroke-width="0.3"/>
<line x1="180" y1="171" x2="175" y2="190" stroke="#333" stroke-width="0.7"/>
<line x1="175" y1="190" x2="175" y2="195" stroke="#333" stroke-width="0.7"/>
<rect x="171" y="195" width="8" height="14" fill="#bbb" stroke="#333" stroke-width="0.4"/>
<line x1="175" y1="209" x2="175" y2="215" stroke="#333" stroke-width="0.7"/>
<rect x="153" y="195" width="10" height="22" fill="#888" stroke="#333" stroke-width="0.4"/>
<line x1="158" y1="195" x2="175" y2="190" stroke="#333" stroke-width="0.5"/>
<rect x="192" y="230" width="28" height="60" rx="2" fill="#999" stroke="#333" stroke-width="0.6"/>
<rect x="192" y="290" width="28" height="4" fill="#777" stroke="#333" stroke-width="0.4"/>
<ellipse cx="209" cy="227" rx="3.5" ry="2.5" fill="#ddd" stroke="#333" stroke-width="0.4"/>
<line x1="209" y1="225" x2="182" y2="200" stroke="#333" stroke-width="0.5"/>
<ellipse cx="223" cy="254" rx="3" ry="2" fill="#ddd" stroke="#333" stroke-width="0.4"/>
<ellipse cx="223" cy="266" rx="3" ry="2" fill="#ddd" stroke="#333" stroke-width="0.4"/>
<ellipse cx="223" cy="278" rx="3" ry="2" fill="#ddd" stroke="#333" stroke-width="0.4"/>
<line x1="0" y1="210" x2="680" y2="210" stroke="#5F5E5A" stroke-width="0.9"/>
<circle cx="180" cy="210" r="2" fill="#444441"/>
<line x1="189" y1="320" x2="189" y2="610" stroke="#1D9E75" stroke-width="0.8"/>
<rect x="186" y="510" width="6" height="100" fill="#5F5E5A" stroke="#2C2C2A" stroke-width="0.3"/>
<line x1="0" y1="113" x2="680" y2="113" stroke="#C8E0EE" stroke-width="3.2" opacity="0.85"/>
<polygon points="22.5,114 27.5,114 25,120" fill="#C8E0EE" stroke="#7AA0B8" stroke-width="0.4" opacity="0.9"/>
<polygon points="102.5,114 107.5,114 105,120" fill="#C8E0EE" stroke="#7AA0B8" stroke-width="0.4" opacity="0.9"/>
<polygon points="182.5,114 187.5,114 185,120" fill="#C8E0EE" stroke="#7AA0B8" stroke-width="0.4" opacity="0.9"/>
<polygon points="262.5,114 267.5,114 265,120" fill="#C8E0EE" stroke="#7AA0B8" stroke-width="0.4" opacity="0.9"/>
<polygon points="342.5,114 347.5,114 345,120" fill="#C8E0EE" stroke="#7AA0B8" stroke-width="0.4" opacity="0.9"/>
<polygon points="422.5,114 427.5,114 425,120" fill="#C8E0EE" stroke="#7AA0B8" stroke-width="0.4" opacity="0.9"/>
<polygon points="502.5,114 507.5,114 505,120" fill="#C8E0EE" stroke="#7AA0B8" stroke-width="0.4" opacity="0.9"/>
<polygon points="582.5,114 587.5,114 585,120" fill="#C8E0EE" stroke="#7AA0B8" stroke-width="0.4" opacity="0.9"/>
<ellipse cx="180" cy="113" rx="7" ry="5" fill="#C8E0EE" stroke="#7AA0B8" stroke-width="0.4" opacity="0.85"/>
<rect x="420" y="75" width="240" height="82" rx="6" fill="#EAF3DE" stroke="#3B6D11" stroke-width="1.4"/>
<text x="430" y="93" font-family="Helvetica, Arial, sans-serif" font-size="13" font-weight="600" fill="#173404">Glaze ice on primary conductor</text>
<text x="430" y="108" font-family="Helvetica, Arial, sans-serif" font-size="11" fill="#173404">Within NESC 250 design load</text>
<text x="430" y="123" font-family="Helvetica, Arial, sans-serif" font-size="11" fill="#173404">Clearances maintained</text>
<text x="430" y="138" font-family="Helvetica, Arial, sans-serif" font-size="11" fill="#173404">No corrective action needed</text>
<rect x="242" y="154" width="140.0" height="15" fill="#FFFFFF" fill-opacity="0.78" rx="2"/>
<text x="245" y="165" font-family="Helvetica, Arial, sans-serif" font-size="10" fill="#3D3D3A">primary 7.2 kV (1-phase)</text>
<rect x="242" y="196" width="85.0" height="15" fill="#FFFFFF" fill-opacity="0.78" rx="2"/>
<text x="245" y="207" font-family="Helvetica, Arial, sans-serif" font-size="10" fill="#3D3D3A">system neutral</text>
<rect x="242" y="276" width="107.00000000000001" height="15" fill="#FFFFFF" fill-opacity="0.78" rx="2"/>
<text x="245" y="287" font-family="Helvetica, Arial, sans-serif" font-size="10" fill="#3D3D3A">secondary 120/240V</text>
<rect x="0" y="660" width="680" height="140" fill="#F1EFE8"/>
<line x1="0" y1="660" x2="680" y2="660" stroke="#73726c" stroke-width="0.6"/>
<text x="24" y="682" font-family="Helvetica, Arial, sans-serif" font-size="13" font-weight="600" fill="#2C2C2A">Regulation citations</text>
<text x="24" y="700" font-family="Helvetica, Arial, sans-serif" font-size="11" fill="#444441">NESC Rule 250.B: Combined ice and wind district loading</text>
<text x="24" y="716" font-family="Helvetica, Arial, sans-serif" font-size="11" fill="#444441">NESC Rule 261.A: Strength factors for ice loading</text>
<text x="24" y="732" font-family="Helvetica, Arial, sans-serif" font-size="11" fill="#444441">ANSI O5.1 wood pole ice loading capacity</text>
<text x="24" y="748" font-family="Helvetica, Arial, sans-serif" font-size="11" fill="#444441">Michigan ice loading: NESC heavy loading district</text>
<text x="24" y="764" font-family="Helvetica, Arial, sans-serif" font-size="11" fill="#444441">Utility O and M: post-ice patrol after heavy storms</text>
<rect x="470" y="668" width="200" height="100" rx="4" fill="#EAF3DE" stroke="#3B6D11" stroke-width="0.6"/>
<text x="478" y="684" font-family="Helvetica, Arial, sans-serif" font-size="11" font-weight="600" fill="#173404">Annotation metadata</text>
<text x="478" y="700" font-family="Helvetica, Arial, sans-serif" font-size="10" fill="#173404">pole_type: sp35c5</text>
<text x="478" y="713" font-family="Helvetica, Arial, sans-serif" font-size="10" fill="#173404">scene_type: weather_context</text>
<text x="478" y="726" font-family="Helvetica, Arial, sans-serif" font-size="10" fill="#173404">weather_condition: ice_loading</text>
<text x="478" y="739" font-family="Helvetica, Arial, sans-serif" font-size="10" fill="#173404">framing: compliant_with_weather</text>
<text x="478" y="752" font-family="Helvetica, Arial, sans-serif" font-size="10" fill="#173404">ice_radial_in: 0.5</text>
<text x="478" y="765" font-family="Helvetica, Arial, sans-serif" font-size="10" fill="#173404">design_load_NESC_heavy: True</text>
</svg>