<svg xmlns="http://www.w3.org/2000/svg" viewBox="0 0 680 800" width="680" height="800">
<title>Transmission sag below railroad clearance</title>
<desc>Pole compliance training scene. Severity: SERIOUS. Hazard: summer sag below rail clearance.</desc>
<rect x="0" y="0" width="680" height="60" fill="#854F0B"/>
<text x="24" y="38" font-family="Helvetica, Arial, sans-serif" font-size="20" font-weight="600" fill="#FFFFFF">SERIOUS</text>
<text x="660" y="22" font-family="Helvetica, Arial, sans-serif" font-size="10" fill="#FAEEDA" text-anchor="end">OSHA 29 CFR 1903.14(b)</text>
<text x="660" y="37" font-family="Helvetica, Arial, sans-serif" font-size="10" fill="#FAEEDA" text-anchor="end">Hazard: summer sag below rail clearance</text>
<text x="660" y="52" font-family="Helvetica, Arial, sans-serif" font-size="10" fill="#FAEEDA" text-anchor="end">Scene: tds115_w_summer_rail_clearance</text>
<rect x="0" y="60" width="680" height="550" fill="#EAF1F7"/>
<rect x="0" y="610" width="680" height="50" fill="#D9C8A8"/>
<line x1="0" y1="610" x2="680" y2="610" stroke="#7A5C2A" stroke-width="1"/>
<path d="M 20 612 L 23 606 L 26 612" stroke="#3B6D11" stroke-width="0.7" fill="none"/>
<path d="M 48 612 L 51 606 L 54 612" stroke="#3B6D11" stroke-width="0.7" fill="none"/>
<path d="M 76 612 L 79 606 L 82 612" stroke="#3B6D11" stroke-width="0.7" fill="none"/>
<path d="M 104 612 L 107 606 L 110 612" stroke="#3B6D11" stroke-width="0.7" fill="none"/>
<path d="M 132 612 L 135 606 L 138 612" stroke="#3B6D11" stroke-width="0.7" fill="none"/>
<path d="M 160 612 L 163 606 L 166 612" stroke="#3B6D11" stroke-width="0.7" fill="none"/>
<path d="M 188 612 L 191 606 L 194 612" stroke="#3B6D11" stroke-width="0.7" fill="none"/>
<path d="M 216 612 L 219 606 L 222 612" stroke="#3B6D11" stroke-width="0.7" fill="none"/>
<path d="M 244 612 L 247 606 L 250 612" stroke="#3B6D11" stroke-width="0.7" fill="none"/>
<path d="M 272 612 L 275 606 L 278 612" stroke="#3B6D11" stroke-width="0.7" fill="none"/>
<path d="M 300 612 L 303 606 L 306 612" stroke="#3B6D11" stroke-width="0.7" fill="none"/>
<path d="M 328 612 L 331 606 L 334 612" stroke="#3B6D11" stroke-width="0.7" fill="none"/>
<path d="M 356 612 L 359 606 L 362 612" stroke="#3B6D11" stroke-width="0.7" fill="none"/>
<path d="M 384 612 L 387 606 L 390 612" stroke="#3B6D11" stroke-width="0.7" fill="none"/>
<path d="M 412 612 L 415 606 L 418 612" stroke="#3B6D11" stroke-width="0.7" fill="none"/>
<path d="M 440 612 L 443 606 L 446 612" stroke="#3B6D11" stroke-width="0.7" fill="none"/>
<path d="M 468 612 L 471 606 L 474 612" stroke="#3B6D11" stroke-width="0.7" fill="none"/>
<path d="M 496 612 L 499 606 L 502 612" stroke="#3B6D11" stroke-width="0.7" fill="none"/>
<path d="M 524 612 L 527 606 L 530 612" stroke="#3B6D11" stroke-width="0.7" fill="none"/>
<path d="M 552 612 L 555 606 L 558 612" stroke="#3B6D11" stroke-width="0.7" fill="none"/>
<path d="M 580 612 L 583 606 L 586 612" stroke="#3B6D11" stroke-width="0.7" fill="none"/>
<path d="M 608 612 L 611 606 L 614 612" stroke="#3B6D11" stroke-width="0.7" fill="none"/>
<path d="M 636 612 L 639 606 L 642 612" stroke="#3B6D11" stroke-width="0.7" fill="none"/>
<path d="M 664 612 L 667 606 L 670 612" stroke="#3B6D11" stroke-width="0.7" fill="none"/>
<rect x="0" y="475" width="58" height="55" fill="#C0AC85" stroke="#5C4426" stroke-width="0.6"/>
<polygon points="0,475 29,448 58,475" fill="#7A5C2A" stroke="#5C4426" stroke-width="0.6"/>
<rect x="20" y="495" width="12" height="20" fill="#5C4426"/>
<rect x="40" y="495" width="11" height="11" fill="#A8C8E0"/>
<rect x="0" y="60" width="680" height="550" fill="#FFE8B0" fill-opacity="0.22"/>
<circle cx="600" cy="115" r="36" fill="#FFE585" fill-opacity="0.55"/>
<circle cx="600" cy="115" r="22" fill="#FFF4C0" fill-opacity="0.8"/>
<path d="M 40 600 Q 48 595 56 600" stroke="#E0B870" stroke-width="0.6" fill="none" opacity="0.4"/>
<path d="M 80 600 Q 88 595 96 600" stroke="#E0B870" stroke-width="0.6" fill="none" opacity="0.4"/>
<path d="M 120 600 Q 128 595 136 600" stroke="#E0B870" stroke-width="0.6" fill="none" opacity="0.4"/>
<path d="M 160 600 Q 168 595 176 600" stroke="#E0B870" stroke-width="0.6" fill="none" opacity="0.4"/>
<path d="M 200 600 Q 208 595 216 600" stroke="#E0B870" stroke-width="0.6" fill="none" opacity="0.4"/>
<path d="M 240 600 Q 248 595 256 600" stroke="#E0B870" stroke-width="0.6" fill="none" opacity="0.4"/>
<path d="M 280 600 Q 288 595 296 600" stroke="#E0B870" stroke-width="0.6" fill="none" opacity="0.4"/>
<path d="M 320 600 Q 328 595 336 600" stroke="#E0B870" stroke-width="0.6" fill="none" opacity="0.4"/>
<path d="M 360 600 Q 368 595 376 600" stroke="#E0B870" stroke-width="0.6" fill="none" opacity="0.4"/>
<path d="M 400 600 Q 408 595 416 600" stroke="#E0B870" stroke-width="0.6" fill="none" opacity="0.4"/>
<path d="M 440 600 Q 448 595 456 600" stroke="#E0B870" stroke-width="0.6" fill="none" opacity="0.4"/>
<path d="M 480 600 Q 488 595 496 600" stroke="#E0B870" stroke-width="0.6" fill="none" opacity="0.4"/>
<path d="M 520 600 Q 528 595 536 600" stroke="#E0B870" stroke-width="0.6" fill="none" opacity="0.4"/>
<path d="M 560 600 Q 568 595 576 600" stroke="#E0B870" stroke-width="0.6" fill="none" opacity="0.4"/>
<path d="M 600 600 Q 608 595 616 600" stroke="#E0B870" stroke-width="0.6" fill="none" opacity="0.4"/>
<path d="M 640 600 Q 648 595 656 600" stroke="#E0B870" stroke-width="0.6" fill="none" opacity="0.4"/>
<polygon points="214,72 226,72 231,610 209,610" fill="#9CA0AC" stroke="#4C5260" stroke-width="0.5"/>
<line x1="220" y1="72" x2="220" y2="610" stroke="#4C5260" stroke-width="0.3" opacity="0.6"/>
<rect x="205" y="607" width="30" height="6" fill="#6C7280" stroke="#3A3F4A" stroke-width="0.5"/>
<rect x="207" y="613" width="26" height="45" fill="#7A7A7A" fill-opacity="0.3" stroke="#3A3F4A" stroke-width="0.4" stroke-dasharray="3 2"/>
<circle cx="216" cy="610" r="0.8" fill="#2A2F3A"/>
<circle cx="219" cy="610" r="0.8" fill="#2A2F3A"/>
<circle cx="222" cy="610" r="0.8" fill="#2A2F3A"/>
<circle cx="225" cy="610" r="0.8" fill="#2A2F3A"/>
<rect x="212" y="80" width="60" height="14" fill="#9CA0AC" stroke="#4C5260" stroke-width="0.7"/>
<line x1="272" y1="120" x2="330" y2="120" stroke="#4A4A4A" stroke-width="1.4"/>
<ellipse cx="276.8333333333333" cy="120.0" rx="2.5" ry="3.2" fill="#D2D2D2" stroke="#3C3C3C" stroke-width="0.4"/>
<ellipse cx="286.5" cy="120.0" rx="2.5" ry="3.2" fill="#D2D2D2" stroke="#3C3C3C" stroke-width="0.4"/>
<ellipse cx="296.1666666666667" cy="120.0" rx="2.5" ry="3.2" fill="#D2D2D2" stroke="#3C3C3C" stroke-width="0.4"/>
<ellipse cx="305.8333333333333" cy="120.0" rx="2.5" ry="3.2" fill="#D2D2D2" stroke="#3C3C3C" stroke-width="0.4"/>
<ellipse cx="315.5" cy="120.0" rx="2.5" ry="3.2" fill="#D2D2D2" stroke="#3C3C3C" stroke-width="0.4"/>
<ellipse cx="325.1666666666667" cy="120.0" rx="2.5" ry="3.2" fill="#D2D2D2" stroke="#3C3C3C" stroke-width="0.4"/>
<line x1="272" y1="145" x2="330" y2="145" stroke="#4A4A4A" stroke-width="1.4"/>
<ellipse cx="276.8333333333333" cy="145.0" rx="2.5" ry="3.2" fill="#D2D2D2" stroke="#3C3C3C" stroke-width="0.4"/>
<ellipse cx="286.5" cy="145.0" rx="2.5" ry="3.2" fill="#D2D2D2" stroke="#3C3C3C" stroke-width="0.4"/>
<ellipse cx="296.1666666666667" cy="145.0" rx="2.5" ry="3.2" fill="#D2D2D2" stroke="#3C3C3C" stroke-width="0.4"/>
<ellipse cx="305.8333333333333" cy="145.0" rx="2.5" ry="3.2" fill="#D2D2D2" stroke="#3C3C3C" stroke-width="0.4"/>
<ellipse cx="315.5" cy="145.0" rx="2.5" ry="3.2" fill="#D2D2D2" stroke="#3C3C3C" stroke-width="0.4"/>
<ellipse cx="325.1666666666667" cy="145.0" rx="2.5" ry="3.2" fill="#D2D2D2" stroke="#3C3C3C" stroke-width="0.4"/>
<line x1="272" y1="170" x2="330" y2="170" stroke="#4A4A4A" stroke-width="1.4"/>
<ellipse cx="276.8333333333333" cy="170.0" rx="2.5" ry="3.2" fill="#D2D2D2" stroke="#3C3C3C" stroke-width="0.4"/>
<ellipse cx="286.5" cy="170.0" rx="2.5" ry="3.2" fill="#D2D2D2" stroke="#3C3C3C" stroke-width="0.4"/>
<ellipse cx="296.1666666666667" cy="170.0" rx="2.5" ry="3.2" fill="#D2D2D2" stroke="#3C3C3C" stroke-width="0.4"/>
<ellipse cx="305.8333333333333" cy="170.0" rx="2.5" ry="3.2" fill="#D2D2D2" stroke="#3C3C3C" stroke-width="0.4"/>
<ellipse cx="315.5" cy="170.0" rx="2.5" ry="3.2" fill="#D2D2D2" stroke="#3C3C3C" stroke-width="0.4"/>
<ellipse cx="325.1666666666667" cy="170.0" rx="2.5" ry="3.2" fill="#D2D2D2" stroke="#3C3C3C" stroke-width="0.4"/>
<path d="M 190 120 Q 210 80 250 80 L 270 120" stroke="#A32D2D" stroke-width="1.2" fill="none"/>
<path d="M 190 145 Q 210 110 250 110 L 270 145" stroke="#A32D2D" stroke-width="1.2" fill="none"/>
<path d="M 190 170 Q 210 130 250 130 L 270 170" stroke="#A32D2D" stroke-width="1.2" fill="none"/>
<line x1="330" y1="120" x2="680" y2="120" stroke="#A32D2D" stroke-width="0.9"/>
<line x1="330" y1="145" x2="680" y2="145" stroke="#A32D2D" stroke-width="0.9"/>
<line x1="330" y1="170" x2="680" y2="170" stroke="#A32D2D" stroke-width="0.9"/>
<line x1="0" y1="120" x2="190" y2="120" stroke="#A32D2D" stroke-width="0.9"/>
<line x1="0" y1="145" x2="190" y2="145" stroke="#A32D2D" stroke-width="0.9"/>
<line x1="0" y1="170" x2="190" y2="170" stroke="#A32D2D" stroke-width="0.9"/>
<line x1="0" y1="55" x2="680" y2="55" stroke="#5F5E5A" stroke-width="0.6"/>
<circle cx="220" cy="55" r="1.8" fill="#3C3C3C"/>
<line x1="212" y1="92" x2="90" y2="608" stroke="#3D3D3A" stroke-width="1.8"/>
<line x1="212" y1="110" x2="90" y2="610" stroke="#3D3D3A" stroke-width="1.8"/>
<ellipse cx="160" cy="320" rx="6" ry="4" fill="#D2D2D2" stroke="#3C3C3C" stroke-width="0.5"/>
<line x1="229" y1="460" x2="229" y2="610" stroke="#1D9E75" stroke-width="0.8"/>
<rect x="226" y="510" width="6" height="100" fill="#5F5E5A" stroke="#2C2C2A" stroke-width="0.3"/>
<path d="M 0 145 Q 340.0 190.0 680 145" stroke="#A32D2D" stroke-width="1.1" fill="none"/>
<line x1="0" y1="595" x2="680" y2="595" stroke="#3C3C3C" stroke-width="2"/>
<line x1="0" y1="603" x2="680" y2="603" stroke="#3C3C3C" stroke-width="2"/>
<line x1="300" y1="188" x2="300" y2="590" stroke="#A32D2D" stroke-width="1" stroke-dasharray="3 2"/>
<rect x="282.0" y="382.0" width="40" height="13" fill="#FFFFFF" fill-opacity="0.9" rx="2"/>
<text x="300.0" y="392.0" font-family="Helvetica, Arial, sans-serif" font-size="9" font-weight="600" fill="#A32D2D" text-anchor="middle">24 ft</text>
<circle cx="300" cy="188" r="22" fill="#854F0B" fill-opacity="0.15"/>
<circle cx="300" cy="188" r="18" fill="none" stroke="#854F0B" stroke-width="2.2" opacity="0.85"/>
<circle cx="300" cy="188" r="14" fill="none" stroke="#854F0B" stroke-width="1" opacity="0.55"/>
<rect x="420" y="75" width="240" height="82" rx="6" fill="#FAEEDA" stroke="#854F0B" stroke-width="1.4"/>
<text x="430" y="93" font-family="Helvetica, Arial, sans-serif" font-size="13" font-weight="600" fill="#412402">Summer sag below railroad clearance</text>
<text x="430" y="108" font-family="Helvetica, Arial, sans-serif" font-size="11" fill="#412402">Mid-span 24 ft over rail</text>
<text x="430" y="123" font-family="Helvetica, Arial, sans-serif" font-size="11" fill="#412402">NESC 234.E min 26 ft over track</text>
<text x="430" y="138" font-family="Helvetica, Arial, sans-serif" font-size="11" fill="#412402">Notify railroad, re-tension</text>
<rect x="57" y="104" width="85.0" height="15" fill="#FFFFFF" fill-opacity="0.78" rx="2"/>
<text x="60" y="115" font-family="Helvetica, Arial, sans-serif" font-size="10" fill="#3D3D3A">3-phase 115 kV</text>
<rect x="17" y="41" width="30.0" height="15" fill="#FFFFFF" fill-opacity="0.78" rx="2"/>
<text x="20" y="52" font-family="Helvetica, Arial, sans-serif" font-size="10" fill="#3D3D3A">OHGW</text>
<rect x="77" y="294" width="90.5" height="15" fill="#FFFFFF" fill-opacity="0.78" rx="2"/>
<text x="80" y="305" font-family="Helvetica, Arial, sans-serif" font-size="10" fill="#3D3D3A">back-guy strain</text>
<rect x="332" y="149" width="96.0" height="15" fill="#FFFFFF" fill-opacity="0.78" rx="2"/>
<text x="335" y="160" font-family="Helvetica, Arial, sans-serif" font-size="10" fill="#3D3D3A">dead-end strings</text>
<rect x="0" y="660" width="680" height="140" fill="#F1EFE8"/>
<line x1="0" y1="660" x2="680" y2="660" stroke="#73726c" stroke-width="0.6"/>
<text x="24" y="682" font-family="Helvetica, Arial, sans-serif" font-size="13" font-weight="600" fill="#2C2C2A">Regulation citations</text>
<text x="24" y="700" font-family="Helvetica, Arial, sans-serif" font-size="11" fill="#444441">NESC Rule 234.E: railroad clearance</text>
<text x="24" y="716" font-family="Helvetica, Arial, sans-serif" font-size="11" fill="#444441">NESC Rule 261.C: max temp sag</text>
<text x="24" y="732" font-family="Helvetica, Arial, sans-serif" font-size="11" fill="#444441">AAR Specification M-1004: railroad clearance</text>
<text x="24" y="748" font-family="Helvetica, Arial, sans-serif" font-size="11" fill="#444441">MDOT railroad coordination</text>
<text x="24" y="764" font-family="Helvetica, Arial, sans-serif" font-size="11" fill="#444441">MPSC R 460.3504: corrective action</text>
<rect x="470" y="668" width="200" height="100" rx="4" fill="#FAEEDA" stroke="#854F0B" stroke-width="0.6"/>
<text x="478" y="684" font-family="Helvetica, Arial, sans-serif" font-size="11" font-weight="600" fill="#412402">Annotation metadata</text>
<text x="478" y="700" font-family="Helvetica, Arial, sans-serif" font-size="10" fill="#412402">pole_type: tds115</text>
<text x="478" y="713" font-family="Helvetica, Arial, sans-serif" font-size="10" fill="#412402">scene_type: weather_violation</text>
<text x="478" y="726" font-family="Helvetica, Arial, sans-serif" font-size="10" fill="#412402">weather_condition: summer_thermal</text>
<text x="478" y="739" font-family="Helvetica, Arial, sans-serif" font-size="10" fill="#412402">framing: weather_induced_violation</text>
<text x="478" y="752" font-family="Helvetica, Arial, sans-serif" font-size="10" fill="#412402">severity: serious</text>
</svg>